<svg id="Calque_2" data-name="Calque 2" xmlns="http://www.w3.org/2000/svg" viewBox="0 0 45.33 38.5"><defs><style>.cls-1{fill:#fff;}.cls-1,.cls-2{stroke:#1d1d1b;stroke-miterlimit:10;}.cls-2{fill:none;stroke-width:0.5px;}.cls-3{fill:#fbb915;}</style></defs><path class="cls-1" d="M284.2,323.81" transform="translate(-275.45 -275)"/><path class="cls-2" d="M311.76,323.81" transform="translate(-275.45 -275)"/><polygon class="cls-3" points="15.63 35.36 18.53 35.36 18.53 38.5 10.68 38.5 13.1 33.77 13.9 32.22 10.68 32.22 10.68 29.44 18.53 29.44 16.41 33.77 15.63 35.36"/><polygon class="cls-3" points="31.47 33.64 35.37 38.36 33.17 38.36 30.27 35.1 30.27 38.36 27.84 38.36 27.84 29.3 30.19 29.3 30.3 31.85 32.67 29.3 35.39 29.3 31.29 33.41 31.47 33.64"/><path class="cls-3" d="M298.15,275v20.38H278.24a1.21,1.21,0,0,1-1.17-1l-1.59-7.32a1.23,1.23,0,0,1,1.49-1.5l7.91,2.36,3.61,1.08a1.17,1.17,0,0,0,1.33-.52Z" transform="translate(-275.45 -275)"/><path class="cls-3" d="M320.74,287.42l-1.48,6.83a1.4,1.4,0,0,1-1.35,1.13H298.15V275l8.25,13.38a1.35,1.35,0,0,0,1.54.61l11.07-3.3A1.42,1.42,0,0,1,320.74,287.42Z" transform="translate(-275.45 -275)"/><polygon class="cls-3" points="30.84 24.96 30.84 27.75 24.26 27.75 24.21 33.83 24.18 37.61 21.84 37.61 21.84 27.75 15.44 27.75 15.44 24.96 30.84 24.96"/></svg>