<svg id="Calque_2" data-name="Calque 2" xmlns="http://www.w3.org/2000/svg" viewBox="0 0 58.46 58.46"><defs><style>.cls-1{fill:#1d1d1b;}.cls-2{fill:#fff;}.cls-2,.cls-3{stroke:#1d1d1b;stroke-miterlimit:10;}.cls-3{fill:none;stroke-width:0.5px;}.cls-4{fill:#c58f29;}.cls-5{fill:#3d2c00;}.cls-6{fill:#f9b233;}</style></defs><circle class="cls-1" cx="29.23" cy="29.23" r="29.23"/><path class="cls-2" d="M284.2,323.81" transform="translate(-269.36 -270.73)"/><path class="cls-3" d="M311.76,323.81" transform="translate(-269.36 -270.73)"/><polygon class="cls-4" points="21.72 39.63 24.62 39.63 24.62 42.77 16.77 42.77 19.19 38.04 19.99 36.49 16.77 36.49 16.77 33.71 24.62 33.71 22.5 38.04 21.72 39.63"/><polygon class="cls-4" points="37.56 37.91 41.46 42.63 39.26 42.63 36.36 39.37 36.36 42.63 33.93 42.63 33.93 33.58 36.28 33.58 36.39 36.12 38.77 33.58 41.48 33.58 37.38 37.68 37.56 37.91"/><path class="cls-5" d="M313.67,312.8l-3,6.24H285.05l-2.84-6.35a.3.3,0,0,1,.44-.38l1.94,1.56a10.22,10.22,0,0,0,6.4,2.29h0a7.48,7.48,0,0,0,6.3-3.55h2.34v0a6.94,6.94,0,0,0,6,3.53h0a8.67,8.67,0,0,0,5.56-2l2.06-1.71C313.47,312.2,313.81,312.5,313.67,312.8Z" transform="translate(-269.36 -270.73)"/><path class="cls-5" d="M314.94,308.8h0a5.89,5.89,0,0,0-5.72-6.05H306.3V300H290.89v2.79h-4.66a5.35,5.35,0,0,0-5.2,5.49l-.22-.63-2.67-8.16a1.13,1.13,0,0,1,1-1.51H317a1,1,0,0,1,.94,1.37Z" transform="translate(-269.36 -270.73)"/><path class="cls-4" d="M298.15,275v20.38H278.24a1.21,1.21,0,0,1-1.17-1l-1.59-7.32a1.23,1.23,0,0,1,1.49-1.5l7.91,2.36,3.61,1.08a1.17,1.17,0,0,0,1.33-.52Z" transform="translate(-269.36 -270.73)"/><path class="cls-6" d="M320.74,287.42l-1.48,6.83a1.4,1.4,0,0,1-1.35,1.13H298.15V275l8.25,13.38a1.35,1.35,0,0,0,1.54.61l11.07-3.3A1.42,1.42,0,0,1,320.74,287.42Z" transform="translate(-269.36 -270.73)"/><polygon class="cls-4" points="36.93 29.23 36.93 32.02 30.35 32.02 30.3 38.1 30.27 41.88 27.93 41.88 27.93 32.02 21.53 32.02 21.53 29.23 36.93 29.23"/></svg>