<?xml version="1.0" encoding="UTF-8" standalone="no"?>
<!-- Created with Inkscape (http://www.inkscape.org/) -->

<svg
   xmlns:dc="http://purl.org/dc/elements/1.1/"
   xmlns:cc="http://creativecommons.org/ns#"
   xmlns:rdf="http://www.w3.org/1999/02/22-rdf-syntax-ns#"
   xmlns:svg="http://www.w3.org/2000/svg"
   xmlns="http://www.w3.org/2000/svg"
   xmlns:sodipodi="http://sodipodi.sourceforge.net/DTD/sodipodi-0.dtd"
   xmlns:inkscape="http://www.inkscape.org/namespaces/inkscape"
   id="svg2"
   version="1.1"
   inkscape:version="0.91 r13725"
   xml:space="preserve"
   width="700"
   height="288"
   viewBox="0 0 700 288"
   sodipodi:docname="Logo ArcelorMittal.svg"><metadata
     id="metadata8"><rdf:RDF><cc:Work
         rdf:about=""><dc:format>image/svg+xml</dc:format><dc:type
           rdf:resource="http://purl.org/dc/dcmitype/StillImage" /><dc:title></dc:title></cc:Work></rdf:RDF></metadata><defs
     id="defs6" /><sodipodi:namedview
     pagecolor="#ffffff"
     bordercolor="#666666"
     borderopacity="1"
     objecttolerance="10"
     gridtolerance="10"
     guidetolerance="10"
     inkscape:pageopacity="0"
     inkscape:pageshadow="2"
     inkscape:window-width="1440"
     inkscape:window-height="788"
     id="namedview4"
     showgrid="false"
     inkscape:zoom="1.0633314"
     inkscape:cx="221.4045"
     inkscape:cy="37.220876"
     inkscape:window-x="0"
     inkscape:window-y="1"
     inkscape:window-maximized="1"
     inkscape:current-layer="g10" /><g
     id="g10"
     inkscape:groupmode="layer"
     inkscape:label="Logo"
     transform="matrix(1.25,0,0,-1.25,0,288)"><g
       id="g4466"
       transform="matrix(3.3853959,0,0,3.3845123,-1328.5634,-2493.4447)"><g
         id="g4463"><path
           inkscape:connector-curvature="0"
           id="path44"
           style="fill:#ff3612;fill-opacity:1;fill-rule:nonzero;stroke:none"
           d="m 554.532,776.4876 c -0.9408,10e-4 -1.908,0.3444 -2.4552,0.6288 -11.1528,5.8092 -23.8032,9.2424 -36.0876,9.2424 -1.5408,0 -2.6796,-0.0636 -4.1136,-0.2064 2.316,-3.684 6.3072,-9.042 9.0444,-12.3276 0.7092,-0.852 0.9216,-1.3656 0.9216,-2.1864 0,-1.4328 -1.5072,-2.8188 -3.1116,-2.8188 -1.0692,0 -1.7076,0.4212 -2.7,1.5852 -3.33,3.9072 -8.3316,10.8336 -10.7016,14.7636 -11.6604,-2.0628 -24.6576,-8.9496 -32.34,-15.03 -0.876,-0.7056 -1.488,-0.9948 -2.37,-0.9948 -1.632,0 -3.0492,1.4052 -3.0492,3.012 0,0.9276 0.3408,1.6284 1.5432,2.6268 11.7204,9.7584 29.9292,17.4648 45.3912,17.4648 6.1296,0 12.0432,-0.8508 17.7624,-2.2488 3.4704,-0.8484 8.6208,-2.5752 13.0044,-4.488 -11.4948,6.948 -25.9068,13.2936 -35.0196,13.2936 -2.3232,0 -3.7464,-0.7776 -3.7464,-2.3448 0,-0.9204 0.516,-2.154 1.2804,-3.3936 -1.8228,-0.1848 -4.2252,-0.5556 -6.0432,-1.0428 -0.9504,1.7412 -1.6116,3.6 -1.6116,5.5956 0,4.4448 2.8956,7.1784 8.7276,7.1784 13.206,0 35.4048,-12.312 46.4808,-21.3036 1.2696,-1.0296 2.5176,-2.3076 2.5176,-3.8052 0,-1.482 -1.2828,-3.1992 -3.324,-3.2004" /></g><g
         id="g4448"><path
           inkscape:connector-curvature="0"
           id="path46"
           style="fill:#4e4e48;fill-opacity:1;fill-rule:nonzero;stroke:none"
           d="m 410.9928,750.2964 c 0,0.792 0.48,1.2828 1.2168,1.2828 0.738,0 1.1964,-0.4908 1.1964,-1.2828 l 0,-1.3368 c 0.6432,1.3176 2.0688,2.6196 3.3504,2.6196 0.8268,0 1.2264,-0.4836 1.2264,-1.1268 0,-0.6276 -0.3444,-1.098 -1.4052,-1.3944 -2.2032,-0.612 -3.1668,-1.8432 -3.1668,-4.206 l 0,-6.8412 c 0,-0.792 -0.4632,-1.2828 -1.2012,-1.2828 -0.7368,0 -1.2168,0.4908 -1.2168,1.2828" /><path
           inkscape:connector-curvature="0"
           id="path48"
           style="fill:#4e4e48;fill-opacity:1;fill-rule:nonzero;stroke:none"
           d="m 465.1656,750.2964 c 0,0.792 0.4788,1.2828 1.2156,1.2828 0.7368,0 1.1964,-0.4908 1.1964,-1.2828 l 0,-1.3368 c 0.6432,1.3176 2.0688,2.6196 3.3516,2.6196 0.8268,0 1.2264,-0.4836 1.2264,-1.1268 0,-0.6276 -0.3432,-1.098 -1.4052,-1.3944 -2.2044,-0.612 -3.168,-1.8432 -3.168,-4.206 l 0,-6.8412 c 0,-0.792 -0.4644,-1.2828 -1.2012,-1.2828 -0.7368,0 -1.2156,0.4908 -1.2156,1.2828" /><path
           inkscape:connector-curvature="0"
           id="path50"
           style="fill:#4e4e48;fill-opacity:1;fill-rule:nonzero;stroke:none"
           d="m 424.8648,751.5792 c 2.3616,0 3.8784,-0.948 3.8784,-1.7988 0,-0.5112 -0.378,-1.02 -0.9516,-1.02 -0.8832,0 -1.3008,0.714 -2.9268,0.714 -2.742,0 -4.1496,-2.454 -4.1496,-5.322 0,-3.1056 1.5864,-5.3196 4.1496,-5.3196 1.7892,0 2.1804,0.738 3.0216,0.738 0.546,0 0.8772,-0.3684 0.8772,-0.9348 0,-0.5472 -0.4512,-0.9912 -1.266,-1.3668 -0.7116,-0.3288 -1.6536,-0.5412 -2.6328,-0.5412 -4.1088,0 -6.5772,3.0852 -6.5772,7.4244 0,4.2492 2.49,7.4268 6.5772,7.4268" /><path
           inkscape:connector-curvature="0"
           id="path52"
           style="fill:#4e4e48;fill-opacity:1;fill-rule:nonzero;stroke:none"
           d="m 440.1984,745.0272 c 0,2.0748 -1.1808,4.4472 -3.8292,4.4472 -2.604,0 -3.9972,-2.0436 -4.0872,-4.4472 l 7.9164,0 z m -7.9164,-1.8012 c 0.0456,-2.3748 1.584,-4.3932 4.2864,-4.3932 2.8404,0 3.5136,1.5912 4.5384,1.5912 0.5772,0 0.9804,-0.3888 0.9804,-0.9984 0,-1.176 -2.5944,-2.6976 -5.4948,-2.6976 -2.172,0 -3.6276,0.6876 -4.7136,1.7892 -1.38,1.3992 -2.0244,3.4668 -2.0244,5.6352 0,3.9684 2.4576,7.4268 6.5256,7.4268 3.7824,0 6.2364,-3.3396 6.2364,-7.0704 0,-0.846 -0.3432,-1.2828 -1.338,-1.2828" /><path
           inkscape:connector-curvature="0"
           id="path54"
           style="fill:#4e4e48;fill-opacity:1;fill-rule:nonzero;stroke:none"
           d="m 447.5676,738.0108 c 0,-0.7932 -0.4692,-1.284 -1.206,-1.284 -0.7368,0 -1.212,0.4908 -1.212,1.284 l 0,17.1984 c 0,0.792 0.4752,1.284 1.212,1.284 0.7368,0 1.206,-0.492 1.206,-1.284" /><path
           inkscape:connector-curvature="0"
           id="path56"
           style="fill:#4e4e48;fill-opacity:1;fill-rule:nonzero;stroke:none"
           d="m 456.3624,738.8328 c 2.3556,0 3.9708,2.0556 3.9708,5.3196 0,3.2676 -1.6152,5.322 -3.9708,5.322 -2.3568,0 -3.9708,-2.0544 -3.9708,-5.322 0,-3.264 1.614,-5.3196 3.9708,-5.3196 m 0,-2.1096 c -3.8424,0 -6.3984,3.0624 -6.3984,7.4292 0,4.3692 2.556,7.4328 6.3984,7.4328 3.8424,0 6.3984,-3.0636 6.3984,-7.4328 0,-4.3668 -2.556,-7.4292 -6.3984,-7.4292" /><path
           inkscape:connector-curvature="0"
           id="path58"
           style="fill:#4e4e48;fill-opacity:1;fill-rule:nonzero;stroke:none"
           d="m 488.928,750.5784 c -1.3488,-4.6308 -3.5604,-12.2412 -3.7428,-12.8676 -0.2004,-0.6924 -0.6228,-0.9828 -1.2828,-0.9828 -0.6612,0 -1.0704,0.246 -1.284,0.9828 -0.1884,0.6492 -2.508,8.6256 -3.8436,13.2084 -0.2196,0.756 -0.4236,1.65 -0.5784,2.406 -0.0912,-0.7392 -0.2088,-1.6044 -0.3384,-2.4132 -0.69,-4.3296 -1.7604,-11.0796 -2.0592,-12.9852 -0.1308,-0.84 -0.5568,-1.1988 -1.2588,-1.1988 -0.6576,0 -1.0776,0.4428 -1.0776,1.146 0,0.2712 0.0528,0.6276 0.1332,1.092 0,0 2.4252,14.5836 2.6196,15.6984 0.2064,1.1916 0.8232,1.83 1.8288,1.83 0.8952,0 1.6056,-0.5268 1.8888,-1.518 0.1764,-0.6156 2.1312,-7.4664 3.3732,-11.7972 0.2268,-0.7992 0.456,-1.74 0.6312,-2.5896 0.1668,0.8328 0.3804,1.7328 0.6048,2.5116 1.2396,4.326 3.2316,11.2572 3.408,11.8752 0.2856,0.9912 0.9156,1.518 1.8084,1.518 0.9456,0 1.638,-0.6168 1.83,-1.83 0.1788,-1.1172 2.6196,-15.6984 2.6196,-15.6984 0.0792,-0.4644 0.1332,-0.8208 0.1332,-1.092 0,-0.7032 -0.4188,-1.146 -1.0776,-1.146 -0.7008,0 -1.128,0.3588 -1.26,1.1988 -0.288,1.8504 -1.3068,8.2764 -1.998,12.6108 -0.1416,0.8844 -0.2712,1.8876 -0.3792,2.8068 -0.1752,-0.8016 -0.4128,-1.7856 -0.6984,-2.766" /><path
           inkscape:connector-curvature="0"
           id="path60"
           style="fill:#4e4e48;fill-opacity:1;fill-rule:nonzero;stroke:none"
           d="m 499.8048,750.2964 c 0,0.792 -0.4752,1.2828 -1.212,1.2828 -0.738,0 -1.206,-0.4908 -1.206,-1.2828 l 0,-12.2856 c 0,-0.792 0.468,-1.2828 1.206,-1.2828 0.7368,0 1.212,0.4908 1.212,1.2828 l 0,12.2856 z m -1.212,5.5416 c 0.8196,0 1.4748,-0.6552 1.4748,-1.4736 0,-0.8196 -0.6552,-1.4748 -1.4748,-1.4748 -0.8196,0 -1.4748,0.6552 -1.4748,1.4748 0,0.8184 0.6552,1.4736 1.4748,1.4736" /><path
           inkscape:connector-curvature="0"
           id="path62"
           style="fill:#4e4e48;fill-opacity:1;fill-rule:nonzero;stroke:none"
           d="m 504.006,754.5552 c 0,0.7908 0.4704,1.2828 1.2072,1.2828 0.7368,0 1.2108,-0.492 1.2108,-1.2828 l 0,-3.1404 0.9828,0 c 0.7932,0 1.2024,-0.3876 1.2024,-1.0428 0,-0.6552 -0.4092,-1.0476 -1.2024,-1.0476 l -0.9828,0 0,-11.3136 c 0,-0.7932 -0.474,-1.284 -1.2108,-1.284 -0.7368,0 -1.2072,0.4908 -1.2072,1.284 l 0,11.3136 -0.876,0 c -0.7908,0 -1.2,0.3924 -1.2,1.0476 0,0.6552 0.4092,1.0428 1.2,1.0428 l 0.876,0" /><path
           inkscape:connector-curvature="0"
           id="path64"
           style="fill:#4e4e48;fill-opacity:1;fill-rule:nonzero;stroke:none"
           d="m 511.626,754.5552 c 0,0.7908 0.474,1.2828 1.2108,1.2828 0.7368,0 1.206,-0.492 1.206,-1.2828 l 0,-3.1404 0.9828,0 c 0.792,0 1.2012,-0.3876 1.2012,-1.0428 0,-0.6552 -0.4092,-1.0476 -1.2012,-1.0476 l -0.9828,0 0,-11.3136 c 0,-0.7932 -0.4692,-1.284 -1.206,-1.284 -0.7368,0 -1.2108,0.4908 -1.2108,1.284 l 0,11.3136 -0.882,0 c -0.7908,0 -1.2012,0.3924 -1.2012,1.0476 0,0.6552 0.4104,1.0428 1.2012,1.0428 l 0.882,0" /><path
           inkscape:connector-curvature="0"
           id="path66"
           style="fill:#4e4e48;fill-opacity:1;fill-rule:nonzero;stroke:none"
           d="m 397.2168,744.3648 c 1.002,2.808 2.0988,5.88 2.8296,7.9332 0.2052,0.5712 0.3852,1.116 0.5268,1.5672 0.1512,-0.4884 0.3384,-1.0476 0.5208,-1.5624 0.7344,-2.058 1.8276,-5.1252 2.8308,-7.938 l -6.708,0 z m 11.1792,-5.4252 c -0.5052,1.3536 -5.226,14.0436 -5.9604,15.9996 -0.3684,0.9828 -0.9324,1.554 -1.8648,1.554 -0.9552,0 -1.4628,-0.5724 -1.8348,-1.554 -0.3324,-0.8796 -5.4732,-14.6484 -5.9844,-15.9996 -0.2256,-0.5952 -0.312,-0.9144 -0.312,-1.1712 0,-0.606 0.5184,-1.0404 1.146,-1.0404 0.6492,0 1.0212,0.336 1.2252,0.9 0.1224,0.342 0.7908,2.214 1.644,4.602 l 8.232,0 c 0.8052,-2.2548 1.452,-4.0644 1.6452,-4.602 0.1824,-0.5088 0.5184,-0.9 1.1736,-0.9 0.6276,0 1.218,0.3816 1.218,1.0104 0,0.2772 -0.066,0.4968 -0.3276,1.2012" /><path
           inkscape:connector-curvature="0"
           id="path68"
           style="fill:#4e4e48;fill-opacity:1;fill-rule:nonzero;stroke:none"
           d="m 535.9656,738.0108 c 0,-0.7932 -0.4752,-1.284 -1.212,-1.284 -0.738,0 -1.206,0.4908 -1.206,1.284 l 0,17.1984 c 0,0.792 0.468,1.284 1.206,1.284 0.7368,0 1.212,-0.492 1.212,-1.284" /><path
           inkscape:connector-curvature="0"
           id="path70"
           style="fill:#4e4e48;fill-opacity:1;fill-rule:nonzero;stroke:none"
           d="m 523.7688,738.8292 c -2.3556,0 -3.972,2.058 -3.972,5.3232 0,3.2676 1.6164,5.3244 3.972,5.3244 2.3556,0 3.9708,-2.0568 3.9708,-5.3244 0,-3.2652 -1.6152,-5.3232 -3.9708,-5.3232 m 5.1528,12.75 c -0.7368,0 -1.206,-0.4908 -1.206,-1.2828 l 0,-1.0872 c -0.8916,1.4676 -2.3424,2.3748 -4.1352,2.3748 -3.6804,0 -6.2112,-3.0624 -6.2112,-7.4316 0,-4.3668 2.5308,-7.4304 6.2112,-7.4304 1.7928,0 3.2436,0.9072 4.1352,2.3748 l 0,-1.086 c 0,-0.792 0.4692,-1.284 1.206,-1.284 0.7368,0 1.212,0.492 1.212,1.284 l 0,12.2856 c 0,0.792 -0.4752,1.2828 -1.212,1.2828" /></g></g></g></svg>