<?xml version="1.0" encoding="utf-8"?>
<!-- Generator: Adobe Illustrator 28.1.0, SVG Export Plug-In . SVG Version: 6.00 Build 0)  -->
<svg version="1.1" xmlns="http://www.w3.org/2000/svg" xmlns:xlink="http://www.w3.org/1999/xlink" x="0px" y="0px"
	 viewBox="0 0 3232.88 4331.71" style="enable-background:new 0 0 3232.88 4331.71;" xml:space="preserve">
<style type="text/css">
	.st0{fill:#423435;}
	.st1{fill:#EC6408;}
	.st2{fill:#F6AD83;}
	.st3{fill:none;stroke:#000000;stroke-width:25;stroke-miterlimit:10;}
</style>
<g id="Carré">
	<rect x="205.77" y="202.01" class="st0" width="2826.87" height="2826.78"/>
</g>
<g id="B_orange_foncé">
	<path class="st1" d="M1562.68,2095.1h-255.82v-457.44h199.51h1.29h55.02c226.06,0,290.91,124.47,290.91,229.73
		C1853.59,1988.37,1788.74,2095.1,1562.68,2095.1 M2020.86,1837.63v-0.46c0-262.52-231.75-346.76-489.23-346.76
		c-2.11,0-224.77-0.37-224.77-0.37V910.53h-168.19v1331.73h481.88c224.22,0,401.32-159.37,401.32-376.61
		C2021.87,1856,2021.41,1846.72,2020.86,1837.63"/>
</g>
<g id="B_orange_clair">
	<path class="st2" d="M1483.81,1057.8c98.19,0,166.44,20.94,210.35,61.36c41.98,38.4,66.6,94.52,66.6,162.77
		c0,128.51-104.9,206.95-239.84,208.51h5.05h5.6c17.73,0.09,23.61,0.09,8.73,0.09c97.73,0.64,191.34,13.78,269.6,44.46
		c45.38-38.03,83.86-89.65,104.07-160.93c9.65-29.03,14.97-60.9,14.97-95.62v-1.93c0.18-6.61,0.64-13.04,0.64-19.93
		c0-7.44-1.29-14.79-2.94-22.14c-11.94-112.06-68.34-193.91-141.46-246.82c-78.72-56.12-168.19-77.07-299.54-77.07H1306.8v147.25
		H1483.81z"/>
</g>
<g id="B">
	<path class="st0" d="M294.59,3611.01h89.19c51.71,0,74.22-23.79,74.22-69.44c0-45.56-22.5-69.35-74.22-69.35h-89.19V3611.01z
		 M294.59,3398.18h89.19c42.62,0,64.02-25.17,64.02-58.14c0-33.07-21.4-58.24-64.02-58.24h-89.19V3398.18z M205.49,3207.76h173.15
		c92.96,0,153.12,31.69,158.18,117.02c0,49.6-19.93,87.91-71,108.48c60.81,25.08,81.48,53.46,81.48,126.21
		c0,74.04-51.07,125.57-169.93,125.57H205.49V3207.76z"/>
</g>
<g id="A">
	<path class="st0" d="M785.01,3299.04h1.29l52.27,207.59H730.17L785.01,3299.04z M728.8,3207.09l-134.39,477.93h88.55l27.83-103.06
		h147.34l25.72,103.06h88.55l-132.46-477.93H728.8z"/>
</g>
<g id="S_1_">
	<path class="st0" d="M1251.61,3324.69c-13.59-36.9-41.34-61.99-83.41-61.99c-38.76,0-66.5,15.84-66.5,52.74
		c0,81.77,240.3,64.64,240.3,218.83c0,97.51-60.07,146.32-163.41,146.32c-76.24,0-147.89-43.58-174.43-112.71l73.58-32.96
		c21.31,44.87,49.23,74.44,101.5,74.44c44.55,0,78.72-17.12,78.72-63.27c0-93.49-240.2-75.08-240.2-221.4
		c0-84.97,69.72-133.04,150.46-133.04c74.95,0,136.96,38.09,164.79,107.31L1251.61,3324.69z"/>
</g>
<g id="S">
	<path class="st0" d="M1646.39,3324.69c-13.5-36.9-41.34-61.99-83.31-61.99c-38.86,0-66.6,15.84-66.6,52.74
		c0,81.77,240.39,64.64,240.39,218.83c0,97.51-60.07,146.32-163.5,146.32c-76.24,0-147.98-43.58-174.43-112.71l73.67-32.96
		c21.31,44.87,49.05,74.44,101.5,74.44c44.55,0,78.72-17.12,78.72-63.27c0-93.49-240.3-75.08-240.3-221.4
		c0-84.97,69.72-133.04,150.55-133.04c74.95,0,136.87,38.09,164.7,107.31L1646.39,3324.69z"/>
</g>
<g id="E">
	<polygon class="st0" points="1824.76,3207.76 1824.76,3685.04 2140.74,3685.04 2140.74,3608.34 1913.95,3608.34 1913.95,3474.87 
		2073.5,3474.87 2073.5,3398.17 1913.95,3398.17 1913.95,3284.46 2133.67,3284.46 2133.67,3207.76 	"/>
</g>
<g id="T">
	<polygon class="st0" points="2178.17,3207.09 2178.17,3283.79 2300.34,3283.79 2300.34,3685.02 2389.44,3685.02 2389.44,3283.79 
		2511.52,3283.79 2511.52,3207.09 	"/>
</g>
<g id="T_1_">
	<polygon class="st0" points="2537.54,3207.09 2537.54,3283.79 2659.53,3283.79 2659.53,3685.02 2748.72,3685.02 2748.72,3283.79 
		2870.8,3283.79 2870.8,3207.09 	"/>
</g>
<g id="I">
	<rect x="2946.48" y="3207.72" class="st0" width="89.19" height="477.28"/>
	<g>
		<path class="st0" d="M1228.84,4114.91c-16.15,5.8-48.03,15.32-85.72,15.32c-42.24,0-77.02-10.77-104.35-36.86
			c-24.02-23.19-38.93-60.47-38.93-103.95c0.41-83.24,57.56-144.12,151.14-144.12c32.3,0,57.56,7.04,69.57,12.84l-8.7,29.41
			c-14.91-6.63-33.54-12.01-61.7-12.01c-67.91,0-112.22,42.24-112.22,112.23c0,70.82,42.65,112.65,107.66,112.65
			c23.6,0,39.75-3.31,48.04-7.45v-83.24h-56.73v-28.99h91.93V4114.91z"/>
		<path class="st0" d="M1283.92,3851.92c18.22-3.73,44.31-5.79,69.16-5.79c38.51,0,63.35,7.04,80.75,22.77
			c14.08,12.43,21.95,31.48,21.95,53.01c0,36.86-23.19,61.29-52.59,71.24v1.24c21.53,7.45,34.37,27.33,41,56.32
			c9.11,38.93,15.73,65.85,21.53,76.62h-37.27c-4.56-7.87-10.77-31.89-18.63-66.68c-8.28-38.51-23.19-53.01-55.9-54.25h-33.96
			v120.93h-36.03V3851.92z M1319.94,3979.07h36.86c38.51,0,62.94-21.12,62.94-53.01c0-36.03-26.09-51.77-64.18-52.18
			c-17.39,0-29.82,1.66-35.61,3.31V3979.07z"/>
		<path class="st0" d="M1746.46,3984.87c0,96.08-58.39,147.02-129.61,147.02c-73.71,0-125.47-57.15-125.47-141.64
			c0-88.63,55.07-146.61,129.61-146.61C1697.18,3843.64,1746.46,3902.04,1746.46,3984.87z M1529.89,3989.42
			c0,59.64,32.3,113.06,89.03,113.06c57.15,0,89.44-52.6,89.44-115.96c0-55.49-28.98-113.48-89.03-113.48
			C1559.7,3873.05,1529.89,3928.13,1529.89,3989.42z"/>
		<path class="st0" d="M1829.28,3848.2v165.24c0,62.54,27.75,89.04,65.01,89.04c41.41,0,67.91-27.33,67.91-89.04V3848.2h36.44
			v162.76c0,85.73-45.14,120.93-105.59,120.93c-57.15,0-100.21-32.72-100.21-119.27V3848.2H1829.28z"/>
		<path class="st0" d="M2061.18,3851.51c17.39-2.9,40.17-5.38,69.16-5.38c35.61,0,61.7,8.28,78.26,23.19
			c15.32,13.25,24.43,33.55,24.43,58.39c0,25.26-7.45,45.14-21.53,59.64c-19.05,20.29-50.11,30.65-85.3,30.65
			c-10.77,0-20.7-0.42-28.99-2.49v111.82h-36.03V3851.51z M2097.21,3986.11c7.87,2.07,17.81,2.9,29.82,2.9
			c43.48,0,69.98-21.12,69.98-59.64c0-36.86-26.09-54.67-65.84-54.67c-15.73,0-27.74,1.24-33.96,2.9V3986.11z"/>
	</g>
	<line class="st3" x1="205.67" y1="3989.8" x2="833.67" y2="3989.8"/>
	<line class="st3" x1="2407.67" y1="3991.39" x2="3035.67" y2="3991.39"/>
</g>
<g id="Calque_12">
</g>
</svg>
