<?xml version="1.0" encoding="UTF-8" standalone="no"?>
<svg
   xmlns:dc="http://purl.org/dc/elements/1.1/"
   xmlns:cc="http://creativecommons.org/ns#"
   xmlns:rdf="http://www.w3.org/1999/02/22-rdf-syntax-ns#"
   xmlns:svg="http://www.w3.org/2000/svg"
   xmlns="http://www.w3.org/2000/svg"
   xmlns:sodipodi="http://sodipodi.sourceforge.net/DTD/sodipodi-0.dtd"
   xmlns:inkscape="http://www.inkscape.org/namespaces/inkscape"
   width="186.64873mm"
   height="36.371387mm"
   viewBox="0 0 186.64873 36.371387"
   version="1.1"
   id="svg19036"
   inkscape:version="1.0.1 (3bc2e813f5, 2020-09-07)"
   sodipodi:docname="Logo Télécom Physique Strasbourg.svg">
  <defs
     id="defs19030">
    <clipPath
       clipPathUnits="userSpaceOnUse"
       id="clipPath2609">
      <path
         d="M 1261.663,418.587 H 1822.15 V 697.889 H 1261.663 Z"
         id="path2607" />
    </clipPath>
    <clipPath
       clipPathUnits="userSpaceOnUse"
       id="clipPath2621">
      <path
         d="M 1261.663,418.587 H 1822.15 V 697.889 H 1261.663 Z"
         id="path2619" />
    </clipPath>
    <clipPath
       clipPathUnits="userSpaceOnUse"
       id="clipPath2635">
      <path
         d="M 1261.663,418.587 H 1822.15 V 697.889 H 1261.663 Z"
         id="path2633" />
    </clipPath>
    <clipPath
       clipPathUnits="userSpaceOnUse"
       id="clipPath2799">
      <path
         d="m 1262.198,595.325 h 102.031 v 102.03 h -102.031 z"
         id="path2797" />
    </clipPath>
    <clipPath
       clipPathUnits="userSpaceOnUse"
       id="clipPath2821">
      <path
         d="m 1261.663,594.79 h 103.1 v 103.1 h -103.1 z"
         id="path2819" />
    </clipPath>
  </defs>
  <sodipodi:namedview
     id="base"
     pagecolor="#ffffff"
     bordercolor="#666666"
     borderopacity="1.0"
     inkscape:pageopacity="0.0"
     inkscape:pageshadow="2"
     inkscape:zoom="0.98994949"
     inkscape:cx="208.56912"
     inkscape:cy="97.588167"
     inkscape:document-units="mm"
     inkscape:current-layer="layer1"
     inkscape:document-rotation="0"
     showgrid="false"
     fit-margin-top="0"
     fit-margin-left="0"
     fit-margin-right="0"
     fit-margin-bottom="0"
     inkscape:window-width="1600"
     inkscape:window-height="837"
     inkscape:window-x="-8"
     inkscape:window-y="-8"
     inkscape:window-maximized="1" />
  <metadata
     id="metadata19033">
    <rdf:RDF>
      <cc:Work
         rdf:about="">
        <dc:format>image/svg+xml</dc:format>
        <dc:type
           rdf:resource="http://purl.org/dc/dcmitype/StillImage" />
        <dc:title></dc:title>
      </cc:Work>
    </rdf:RDF>
  </metadata>
  <g
     inkscape:label="Calque 1"
     inkscape:groupmode="layer"
     id="layer1"
     transform="translate(27.5565,-16.588112)">
    <g
       id="g19929">
      <path
         d="M 8.2052891,34.860245 H 104.6639 V 16.786382 H 8.2052891 Z"
         style="fill:#ffffff;fill-opacity:1;fill-rule:nonzero;stroke:none;stroke-width:0.352777"
         id="path2601" />
      <g
         id="g2603"
         transform="matrix(0.35277777,0,0,-0.35277777,-472.64316,262.78819)">
        <g
           id="g2605"
           clip-path="url(#clipPath2609)">
          <path
             d="m 1636.461,646.094 h -273.427 v 51.233 h 273.427 z"
             style="fill:none;stroke:#000000;stroke-width:1.076;stroke-linecap:butt;stroke-linejoin:miter;stroke-miterlimit:10;stroke-dasharray:none;stroke-opacity:1"
             id="path2611" />
        </g>
      </g>
      <path
         d="m 104.48716,34.860598 h 8.39329 V 16.786735 h -8.39329 z"
         style="fill:#ffffff;fill-opacity:1;fill-rule:nonzero;stroke:none;stroke-width:0.352777"
         id="path2613" />
      <g
         id="g2615"
         transform="matrix(0.35277777,0,0,-0.35277777,-472.64316,262.78819)">
        <g
           id="g2617"
           clip-path="url(#clipPath2621)">
          <path
             d="m 1659.751,646.094 h -23.791 v 51.234 h 23.791 z"
             style="fill:none;stroke:#000000;stroke-width:1.076;stroke-linecap:butt;stroke-linejoin:miter;stroke-miterlimit:10;stroke-dasharray:none;stroke-opacity:1"
             id="path2623" />
        </g>
      </g>
      <g
         id="g2625"
         transform="matrix(0.35277777,0,0,-0.35277777,17.490577,21.59065)">
        <path
           d="M 0,0 -1.024,1.609 3.439,4.755 4.683,2.816 Z M -3.841,-20.703 V -2.122 H 6.987 v -2.085 h -8.414 v -6.072 h 7.535 v -2.085 h -7.535 v -6.255 h 8.67 v -2.084 z"
           style="fill:#000000;fill-opacity:1;fill-rule:nonzero;stroke:none"
           id="path2627" />
      </g>
      <g
         id="g2629"
         transform="matrix(0.35277777,0,0,-0.35277777,-472.64316,262.78819)">
        <g
           id="g2631"
           clip-path="url(#clipPath2635)">
          <g
             id="g2637"
             transform="translate(1400.183,668.6018)">
            <path
               d="M 0,0 V 3.914 C 0,5.841 0.548,7.323 1.645,8.359 2.743,9.395 4.327,9.914 6.4,9.914 7.083,9.914 7.785,9.827 8.504,9.657 9.223,9.487 9.913,9.243 10.571,8.926 L 9.619,6.915 C 8.912,7.256 8.297,7.487 7.772,7.608 7.248,7.73 6.705,7.791 6.145,7.791 4.901,7.791 3.968,7.468 3.346,6.823 2.724,6.175 2.414,5.207 2.414,3.914 V 0 c 0,-1.341 0.31,-2.322 0.932,-2.944 0.622,-0.622 1.616,-0.933 2.982,-0.933 0.487,0 1.048,0.08 1.682,0.238 0.635,0.159 1.292,0.384 1.975,0.676 L 10.9,-4.974 C 10.071,-5.339 9.296,-5.602 8.577,-5.76 7.858,-5.919 7.107,-5.997 6.328,-5.997 4.23,-5.997 2.652,-5.492 1.591,-4.48 0.531,-3.469 0,-1.975 0,0"
               style="fill:#000000;fill-opacity:1;fill-rule:nonzero;stroke:none"
               id="path2639" />
          </g>
          <g
             id="g2641"
             transform="translate(1423.3722,668.6018)">
            <path
               d="m 0,0 v 3.914 c 0,1.293 -0.305,2.268 -0.914,2.928 -0.61,0.657 -1.513,0.987 -2.707,0.987 -1.195,0 -2.098,-0.33 -2.707,-0.987 C -6.937,6.182 -7.242,5.207 -7.242,3.914 V 0 c 0,-1.292 0.305,-2.267 0.914,-2.925 0.609,-0.66 1.512,-0.988 2.707,-0.988 1.194,0 2.097,0.328 2.707,0.988 C -0.305,-2.267 0,-1.292 0,0 m -9.656,0 v 3.914 c 0,1.879 0.524,3.348 1.573,4.409 1.047,1.061 2.536,1.591 4.462,1.591 1.926,0 3.414,-0.53 4.463,-1.591 C 1.89,7.262 2.414,5.793 2.414,3.914 V 0 c 0,-1.876 -0.524,-3.345 -1.572,-4.406 -1.049,-1.061 -2.537,-1.591 -4.463,-1.591 -1.926,0 -3.415,0.53 -4.462,1.591 -1.049,1.061 -1.573,2.53 -1.573,4.406"
               style="fill:#000000;fill-opacity:1;fill-rule:nonzero;stroke:none"
               id="path2643" />
          </g>
          <path
             d="m 1430.321,684.733 h 2.414 v -21.727 h -2.414 z"
             style="fill:#000000;fill-opacity:1;fill-rule:nonzero;stroke:none"
             id="path2645" />
          <g
             id="g2647"
             transform="translate(1446.7817,671.6022)">
            <path
               d="m 0,0 v 0.914 c 0,1.292 -0.305,2.274 -0.914,2.944 -0.609,0.67 -1.489,1.006 -2.634,1.006 -1.147,0 -2.024,-0.336 -2.634,-1.006 C -6.791,3.188 -7.096,2.206 -7.096,0.914 V 0 Z m -9.51,-3.146 v 4.06 c 0,1.879 0.518,3.347 1.554,4.408 1.037,1.062 2.505,1.591 4.408,1.591 1.903,0 3.372,-0.529 4.408,-1.591 C 1.895,4.261 2.414,2.793 2.414,0.914 2.414,0.257 2.408,-0.305 2.396,-0.769 2.383,-1.231 2.354,-1.67 2.305,-2.084 h -9.401 v -1.062 c 0,-1.292 0.31,-2.237 0.932,-2.834 0.622,-0.599 1.616,-0.897 2.982,-0.897 0.487,0 1.055,0.086 1.701,0.256 0.645,0.17 1.395,0.427 2.248,0.769 l 0.916,-2.013 c -0.926,-0.414 -1.769,-0.708 -2.523,-0.878 -0.757,-0.17 -1.537,-0.254 -2.342,-0.254 -2.098,0 -3.676,0.487 -4.737,1.462 -1.06,0.975 -1.591,2.438 -1.591,4.389"
               style="fill:#000000;fill-opacity:1;fill-rule:nonzero;stroke:none"
               id="path2649" />
          </g>
          <g
             id="g2651"
             transform="translate(1469.8995,668.9695)">
            <path
               d="M 0,0 V 15.763 H 2.414 V -5.963 H 0.548 l -0.474,1.609 c -0.49,-0.657 -1.087,-1.157 -1.793,-1.5 -0.708,-0.34 -1.5,-0.511 -2.378,-0.511 -1.732,0 -3.066,0.524 -4.005,1.572 -0.94,1.049 -1.408,2.475 -1.408,4.28 v 4.207 c 0,1.828 0.494,3.261 1.481,4.297 0.988,1.036 2.37,1.555 4.152,1.555 0.439,0 0.87,-0.042 1.299,-0.128 0.426,-0.086 0.87,-0.215 1.334,-0.385 L -1.61,7.205 C -2.049,7.302 -2.414,7.369 -2.706,7.407 -3,7.443 -3.28,7.461 -3.549,7.461 -4.719,7.461 -5.602,7.144 -6.201,6.51 -6.797,5.875 -7.096,4.938 -7.096,3.694 v -4.207 c 0,-1.221 0.286,-2.147 0.859,-2.78 0.572,-0.634 1.408,-0.952 2.505,-0.952 1.171,0 2.087,0.379 2.744,1.135 C -0.33,-2.355 0,-1.317 0,0"
               style="fill:#000000;fill-opacity:1;fill-rule:nonzero;stroke:none"
               id="path2653" />
          </g>
          <g
             id="g2655"
             transform="translate(1478.3861,677.8198)">
            <path
               d="m 0,0 -1.719,0.513 c 0.267,1.193 0.518,2.347 0.751,3.456 0.23,1.11 0.469,2.286 0.712,3.53 L 2.268,6.987 C 1.902,5.743 1.536,4.56 1.17,3.44 0.805,2.318 0.415,1.17 0,0"
               style="fill:#000000;fill-opacity:1;fill-rule:nonzero;stroke:none"
               id="path2657" />
          </g>
          <path
             d="m 1485.446,678.114 h 2.412 v -15.108 h -2.412 z m 1.207,2.12 -2.158,2.158 2.158,2.158 2.158,-2.158 z"
             style="fill:#000000;fill-opacity:1;fill-rule:nonzero;stroke:none"
             id="path2659" />
          <g
             id="g2661"
             transform="translate(1494.7731,678.114)">
            <path
               d="m 0,0 0.475,-1.61 c 0.489,0.658 1.085,1.158 1.793,1.499 0.706,0.342 1.5,0.512 2.377,0.512 1.73,0 3.066,-0.525 4.007,-1.573 0.936,-1.049 1.407,-2.476 1.407,-4.279 v -9.657 H 7.645 v 9.657 c 0,1.219 -0.289,2.146 -0.859,2.78 -0.574,0.633 -1.409,0.95 -2.506,0.95 -1.171,0 -2.085,-0.378 -2.744,-1.133 C 0.878,-3.61 0.549,-4.646 0.549,-5.963 v -9.145 H -1.865 V 0 Z"
               style="fill:#000000;fill-opacity:1;fill-rule:nonzero;stroke:none"
               id="path2663" />
          </g>
          <g
             id="g2665"
             transform="translate(1509.002,668.4567)">
            <path
               d="m 0,0 v 4.207 c 0,1.754 0.493,3.168 1.48,4.242 0.988,1.074 2.335,1.61 4.041,1.61 0.856,0 1.629,-0.171 2.324,-0.513 C 8.54,9.206 9.119,8.718 9.583,8.083 l 0.474,1.574 h 1.867 V -5.669 c 0,-2.219 -0.52,-3.883 -1.555,-4.995 -1.035,-1.109 -2.591,-1.664 -4.665,-1.664 -0.583,0 -1.207,0.061 -1.863,0.183 -0.661,0.124 -1.367,0.307 -2.124,0.549 l 0.77,2.048 c 0.609,-0.218 1.181,-0.376 1.719,-0.475 0.536,-0.096 1.035,-0.147 1.498,-0.147 1.317,0 2.283,0.349 2.892,1.042 0.609,0.696 0.914,1.849 0.914,3.459 V 3.694 C 9.51,5.011 9.185,6.047 8.54,6.804 7.894,7.558 7.008,7.936 5.889,7.936 4.742,7.936 3.875,7.619 3.292,6.987 2.705,6.352 2.414,5.425 2.414,4.207 V 0 c 0,-1.221 0.291,-2.154 0.878,-2.799 0.583,-0.647 1.411,-0.969 2.485,-0.969 0.319,0 0.628,0.036 0.934,0.11 0.303,0.073 0.615,0.183 0.932,0.33 l 0.843,-1.61 C 8.071,-5.232 7.602,-5.457 7.077,-5.614 6.554,-5.774 6.01,-5.852 5.45,-5.852 3.716,-5.852 2.375,-5.335 1.427,-4.299 0.473,-3.263 0,-1.83 0,0"
               style="fill:#000000;fill-opacity:1;fill-rule:nonzero;stroke:none"
               id="path2667" />
          </g>
          <g
             id="g2669"
             transform="translate(1529.9956,680.2341)">
            <path
               d="M 0,0 -1.022,1.61 3.44,4.755 4.684,2.818 Z m 4.977,-8.632 v 0.914 c 0,1.292 -0.306,2.274 -0.915,2.944 -0.609,0.67 -1.487,1.007 -2.633,1.007 -1.147,0 -2.025,-0.337 -2.634,-1.007 -0.609,-0.67 -0.914,-1.652 -0.914,-2.944 v -0.914 z m -9.511,-3.145 v 4.059 c 0,1.879 0.517,3.347 1.556,4.409 1.035,1.061 2.505,1.59 4.407,1.59 1.902,0 3.371,-0.529 4.406,-1.59 1.037,-1.062 1.556,-2.53 1.556,-4.409 0,-0.657 -0.007,-1.219 -0.019,-1.683 -0.013,-0.462 -0.041,-0.901 -0.091,-1.315 h -9.4 v -1.061 c 0,-1.293 0.312,-2.238 0.933,-2.835 0.622,-0.599 1.614,-0.897 2.978,-0.897 0.489,0 1.057,0.086 1.702,0.256 0.646,0.17 1.397,0.427 2.249,0.769 l 0.916,-2.013 c -0.925,-0.414 -1.768,-0.708 -2.524,-0.878 -0.755,-0.17 -1.538,-0.254 -2.343,-0.254 -2.095,0 -3.675,0.487 -4.735,1.462 -1.061,0.975 -1.591,2.438 -1.591,4.39"
               style="fill:#000000;fill-opacity:1;fill-rule:nonzero;stroke:none"
               id="path2671" />
          </g>
          <g
             id="g2673"
             transform="translate(1543.5681,678.114)">
            <path
               d="m 0,0 0.476,-1.61 c 0.486,0.658 1.084,1.158 1.792,1.499 0.706,0.342 1.5,0.512 2.375,0.512 1.732,0 3.069,-0.525 4.009,-1.573 0.936,-1.049 1.407,-2.476 1.407,-4.279 v -9.657 H 7.645 v 9.657 c 0,1.219 -0.288,2.146 -0.861,2.78 -0.572,0.633 -1.407,0.95 -2.506,0.95 -1.171,0 -2.083,-0.378 -2.742,-1.133 C 0.876,-3.61 0.549,-4.646 0.549,-5.963 v -9.145 H -1.865 V 0 Z"
               style="fill:#000000;fill-opacity:1;fill-rule:nonzero;stroke:none"
               id="path2675" />
          </g>
          <path
             d="m 1558.417,678.114 h 2.414 v -15.108 h -2.414 z m 1.207,2.12 -2.158,2.158 2.158,2.158 2.158,-2.158 z"
             style="fill:#000000;fill-opacity:1;fill-rule:nonzero;stroke:none"
             id="path2677" />
          <g
             id="g2679"
             transform="translate(1574.95,671.6022)">
            <path
               d="m 0,0 v 0.914 c 0,1.292 -0.305,2.274 -0.914,2.944 -0.609,0.67 -1.487,1.006 -2.634,1.006 -1.147,0 -2.025,-0.336 -2.634,-1.006 C -6.791,3.188 -7.096,2.206 -7.096,0.914 V 0 Z m -9.51,-3.146 v 4.06 c 0,1.879 0.516,3.347 1.555,4.408 1.035,1.062 2.505,1.591 4.407,1.591 1.902,0 3.372,-0.529 4.407,-1.591 C 1.896,4.261 2.414,2.793 2.414,0.914 2.414,0.257 2.408,-0.305 2.395,-0.769 2.382,-1.231 2.354,-1.67 2.304,-2.084 h -9.4 v -1.062 c 0,-1.292 0.312,-2.237 0.934,-2.834 0.622,-0.599 1.613,-0.897 2.98,-0.897 0.486,0 1.054,0.086 1.702,0.256 0.643,0.17 1.394,0.427 2.246,0.769 l 0.917,-2.013 c -0.926,-0.414 -1.769,-0.708 -2.524,-0.878 -0.755,-0.17 -1.537,-0.254 -2.341,-0.254 -2.098,0 -3.675,0.487 -4.738,1.462 -1.061,0.975 -1.59,2.438 -1.59,4.389"
               style="fill:#000000;fill-opacity:1;fill-rule:nonzero;stroke:none"
               id="path2681" />
          </g>
          <g
             id="g2683"
             transform="translate(1590.9346,668.9695)">
            <path
               d="M 0,0 V 9.145 H 2.414 V -5.963 H 0.549 l -0.476,1.609 c -0.49,-0.657 -1.086,-1.157 -1.792,-1.5 -0.708,-0.34 -1.5,-0.511 -2.38,-0.511 -1.73,0 -3.064,0.524 -4.004,1.572 -0.938,1.049 -1.407,2.475 -1.407,4.28 v 9.658 h 2.414 v -9.658 c 0,-1.221 0.286,-2.147 0.858,-2.78 0.573,-0.634 1.41,-0.952 2.505,-0.952 1.17,0 2.087,0.379 2.745,1.135 C -0.331,-2.355 0,-1.317 0,0"
               style="fill:#000000;fill-opacity:1;fill-rule:nonzero;stroke:none"
               id="path2685" />
          </g>
          <g
             id="g2687"
             transform="translate(1600.1888,678.114)">
            <path
               d="m 0,0 0.547,-1.866 c 0.462,0.731 1.05,1.292 1.755,1.681 0.708,0.391 1.487,0.586 2.341,0.586 0.465,0 0.919,-0.048 1.371,-0.147 C 6.466,0.158 6.875,0.01 7.24,-0.185 L 6.253,-2.305 C 5.934,-2.16 5.614,-2.049 5.285,-1.977 4.953,-1.904 4.62,-1.866 4.277,-1.866 3.154,-1.866 2.253,-2.263 1.571,-3.055 0.889,-3.847 0.547,-4.927 0.547,-6.293 v -8.815 H -1.868 V 0 Z"
               style="fill:#000000;fill-opacity:1;fill-rule:nonzero;stroke:none"
               id="path2689" />
          </g>
          <g
             id="g2691"
             transform="translate(1610.4286,671.5286)">
            <path
               d="m 0,0 c -0.51,0.391 -0.878,0.817 -1.095,1.28 -0.22,0.464 -0.332,1.013 -0.332,1.647 0,1.194 0.482,2.169 1.446,2.925 0.962,0.756 2.165,1.135 3.604,1.135 0.876,0 1.741,-0.099 2.597,-0.292 C 7.072,6.499 7.866,6.218 8.596,5.852 L 7.647,3.841 C 6.89,4.207 6.195,4.469 5.56,4.627 4.925,4.787 4.293,4.864 3.658,4.864 2.829,4.864 2.177,4.694 1.702,4.354 1.226,4.011 0.988,3.549 0.988,2.963 0.988,2.572 1.08,2.238 1.263,1.956 1.446,1.677 1.771,1.402 2.231,1.135 2.477,0.988 2.859,0.786 3.385,0.53 3.91,0.275 4.232,0.122 4.355,0.074 6.061,-0.756 7.225,-1.53 7.847,-2.25 8.469,-2.969 8.779,-3.841 8.779,-4.864 8.779,-6.108 8.286,-7.096 7.298,-7.827 6.311,-8.558 5,-8.924 3.367,-8.924 c -0.783,0 -1.575,0.078 -2.379,0.238 -0.805,0.157 -1.67,0.42 -2.597,0.786 l 0.77,2.048 c 0.805,-0.317 1.547,-0.548 2.231,-0.695 0.682,-0.147 1.328,-0.219 1.937,-0.219 1.026,0 1.786,0.158 2.287,0.475 0.499,0.317 0.749,0.805 0.749,1.463 0,0.609 -0.214,1.115 -0.639,1.519 -0.429,0.401 -1.337,0.943 -2.724,1.626 -1.223,0.609 -1.976,1 -2.27,1.17 C 0.439,-0.342 0.196,-0.17 0,0"
               style="fill:#000000;fill-opacity:1;fill-rule:nonzero;stroke:none"
               id="path2693" />
          </g>
          <path
             d="m 1790.208,595.349 h -427.173 v 51.233 h 427.173 z"
             style="fill:#ffffff;fill-opacity:1;fill-rule:nonzero;stroke:#000000;stroke-width:1.076;stroke-linecap:butt;stroke-linejoin:miter;stroke-miterlimit:10;stroke-dasharray:none;stroke-opacity:1"
             id="path2695" />
          <g
             id="g2697"
             transform="translate(1385.9778,627.1909)">
            <path
               d="M 0,0 V 3.549 H 14.119 V 0 H 9.255 V -15.179 H 4.865 V 0 Z"
               style="fill:#000000;fill-opacity:1;fill-rule:nonzero;stroke:none"
               id="path2699" />
          </g>
          <g
             id="g2701"
             transform="translate(1409.4252,621.1205)">
            <path
               d="M 0,0 V 0.145 C 0,1.219 -0.214,2.011 -0.641,2.524 -1.067,3.034 -1.707,3.291 -2.56,3.291 -3.39,3.291 -4.018,3.028 -4.444,2.505 -4.871,1.979 -5.085,1.193 -5.085,0.145 V 0 Z m -4.28,7.901 -1.756,2.706 5.487,3.877 2.012,-3.146 z m -5.158,-10.61 v 2.379 c 0,2.171 0.598,3.845 1.793,5.031 1.194,1.18 2.89,1.773 5.085,1.773 2.169,0 3.859,-0.609 5.066,-1.83 1.207,-1.219 1.81,-2.938 1.81,-5.157 0,-0.439 -0.006,-0.836 -0.018,-1.189 C 4.286,-2.055 4.255,-2.513 4.207,-3.074 h -9.292 c 0,-1.049 0.257,-1.822 0.768,-2.322 0.513,-0.5 1.305,-0.75 2.378,-0.75 0.561,0 1.22,0.086 1.976,0.256 0.755,0.17 1.401,0.378 1.938,0.622 L 3.402,-8.34 C 2.548,-8.756 1.676,-9.054 0.786,-9.237 -0.104,-9.42 -1.122,-9.51 -2.268,-9.51 c -2.317,0 -4.091,0.584 -5.323,1.754 -1.231,1.171 -1.847,2.854 -1.847,5.047"
               style="fill:#000000;fill-opacity:1;fill-rule:nonzero;stroke:none"
               id="path2703" />
          </g>
          <path
             d="m 1416.924,633.738 h 4.388 v -21.727 h -4.388 z"
             style="fill:#000000;fill-opacity:1;fill-rule:nonzero;stroke:none"
             id="path2705" />
          <g
             id="g2707"
             transform="translate(1434.1881,621.1205)">
            <path
               d="M 0,0 V 0.145 C 0,1.219 -0.214,2.011 -0.641,2.524 -1.067,3.034 -1.707,3.291 -2.56,3.291 -3.39,3.291 -4.019,3.028 -4.444,2.505 -4.871,1.979 -5.085,1.193 -5.085,0.145 V 0 Z m -4.28,7.901 -1.756,2.706 5.487,3.877 2.012,-3.146 z m -5.158,-10.61 v 2.379 c 0,2.171 0.598,3.845 1.793,5.031 1.194,1.18 2.89,1.773 5.085,1.773 2.169,0 3.859,-0.609 5.066,-1.83 1.207,-1.219 1.81,-2.938 1.81,-5.157 0,-0.439 -0.006,-0.836 -0.018,-1.189 C 4.286,-2.055 4.255,-2.513 4.207,-3.074 h -9.292 c 0,-1.049 0.257,-1.822 0.768,-2.322 0.513,-0.5 1.305,-0.75 2.378,-0.75 0.561,0 1.219,0.086 1.976,0.256 0.755,0.17 1.401,0.378 1.938,0.622 L 3.402,-8.34 C 2.548,-8.756 1.676,-9.054 0.786,-9.237 -0.104,-9.42 -1.122,-9.51 -2.268,-9.51 c -2.317,0 -4.091,0.584 -5.323,1.754 -1.231,1.171 -1.847,2.854 -1.847,5.047"
               style="fill:#000000;fill-opacity:1;fill-rule:nonzero;stroke:none"
               id="path2709" />
          </g>
          <g
             id="g2711"
             transform="translate(1441.0634,618.4119)">
            <path
               d="m 0,0 v 2.379 c 0,2.071 0.604,3.725 1.811,4.956 1.207,1.232 2.872,1.847 4.992,1.847 0.878,0 1.731,-0.098 2.561,-0.292 0.828,-0.195 1.549,-0.464 2.158,-0.804 l -1.5,-3.148 C 9.56,5.159 9.078,5.329 8.578,5.451 8.078,5.573 7.608,5.633 7.17,5.633 6.242,5.633 5.547,5.365 5.085,4.829 4.621,4.293 4.39,3.476 4.39,2.379 V 0 c 0,-1.097 0.231,-1.914 0.695,-2.45 0.462,-0.536 1.182,-0.805 2.157,-0.805 0.391,0 0.843,0.068 1.353,0.202 0.513,0.132 1.086,0.334 1.721,0.603 l 1.463,-3.181 C 10.974,-6.047 10.198,-6.346 9.457,-6.529 8.711,-6.711 7.937,-6.802 7.133,-6.802 4.84,-6.802 3.078,-6.217 1.847,-5.047 0.616,-3.877 0,-2.194 0,0"
               style="fill:#000000;fill-opacity:1;fill-rule:nonzero;stroke:none"
               id="path2713" />
          </g>
          <g
             id="g2715"
             transform="translate(1463.5601,618.3027)">
            <path
               d="M 0,0 V 2.597 C 0,3.694 -0.208,4.505 -0.622,5.03 -1.036,5.554 -1.67,5.816 -2.524,5.816 -3.379,5.816 -4.011,5.554 -4.425,5.03 -4.841,4.505 -5.047,3.694 -5.047,2.597 V 0 c 0,-1.122 0.2,-1.937 0.603,-2.45 0.401,-0.513 1.042,-0.769 1.92,-0.769 0.879,0 1.518,0.256 1.921,0.769 C -0.202,-1.937 0,-1.122 0,0 m -9.401,0.109 v 2.379 c 0,2.171 0.597,3.845 1.793,5.03 1.195,1.181 2.889,1.774 5.084,1.774 2.194,0 3.89,-0.593 5.085,-1.774 C 3.755,6.333 4.354,4.659 4.354,2.488 V 0.109 c 0,-2.17 -0.599,-3.845 -1.793,-5.028 -1.195,-1.183 -2.891,-1.773 -5.085,-1.773 -2.195,0 -3.889,0.59 -5.084,1.773 -1.196,1.183 -1.793,2.858 -1.793,5.028"
               style="fill:#000000;fill-opacity:1;fill-rule:nonzero;stroke:none"
               id="path2717" />
          </g>
          <g
             id="g2719"
             transform="translate(1479.4727,627.5944)">
            <path
               d="M 0,0 C 1.024,0 1.902,-0.195 2.634,-0.586 3.363,-0.975 3.95,-1.574 4.389,-2.379 4.925,-1.597 5.59,-1.007 6.384,-0.603 7.176,-0.202 8.058,0 9.035,0 c 1.756,0 3.079,-0.58 3.967,-1.738 0.891,-1.158 1.337,-2.872 1.337,-5.139 v -8.706 h -4.39 v 8.706 c 0,1.073 -0.172,1.853 -0.512,2.34 -0.342,0.488 -0.878,0.732 -1.609,0.732 -0.781,0 -1.397,-0.267 -1.849,-0.805 C 5.528,-5.146 5.304,-5.902 5.304,-6.877 v -8.706 h -4.39 v 8.706 c 0,1.073 -0.17,1.853 -0.512,2.34 -0.342,0.488 -0.877,0.732 -1.611,0.732 -0.779,0 -1.395,-0.267 -1.846,-0.805 -0.452,-0.536 -0.677,-1.292 -0.677,-2.267 v -8.706 h -4.389 v 15.18 h 3.257 l 0.475,-1.681 c 0.535,0.68 1.17,1.199 1.902,1.552 C -1.756,-0.179 -0.927,0 0,0"
               style="fill:#000000;fill-opacity:1;fill-rule:nonzero;stroke:none"
               id="path2721" />
          </g>
          <g
             id="g2723"
             transform="translate(1503.3926,612.0117)">
            <path
               d="m 0,0 v 18.728 h 7.318 c 2.218,0 3.967,-0.586 5.248,-1.757 1.28,-1.17 1.921,-2.718 1.921,-4.645 V 10.718 C 14.487,8.815 13.906,7.291 12.749,6.146 11.591,4.999 10.022,4.425 8.047,4.425 7.511,4.425 7.019,4.457 6.567,4.518 6.115,4.578 5.646,4.682 5.16,4.829 L 5.816,8.083 C 6.134,8.035 6.403,8.003 6.621,7.993 6.842,7.98 7.06,7.974 7.279,7.974 c 0.904,0 1.596,0.257 2.087,0.769 0.486,0.511 0.732,1.229 0.732,2.158 v 1.425 c 0,0.952 -0.282,1.666 -0.844,2.141 -0.561,0.475 -1.39,0.712 -2.485,0.712 H 4.389 V 0 Z"
               style="fill:#000000;fill-opacity:1;fill-rule:nonzero;stroke:none"
               id="path2725" />
          </g>
          <g
             id="g2727"
             transform="translate(1520.8403,612.0117)">
            <path
               d="m 0,0 v 21.727 h 4.389 v -7.498 c 0.512,0.44 1.085,0.774 1.717,1.005 0.635,0.233 1.332,0.349 2.087,0.349 1.829,0 3.213,-0.593 4.151,-1.774 0.938,-1.185 1.409,-2.885 1.409,-5.104 V 0 H 9.364 v 8.705 c 0,1.074 -0.179,1.854 -0.531,2.341 -0.353,0.488 -0.934,0.731 -1.739,0.731 -0.852,0 -1.517,-0.26 -1.99,-0.785 C 4.626,10.466 4.389,9.731 4.389,8.779 V 0 Z"
               style="fill:#000000;fill-opacity:1;fill-rule:nonzero;stroke:none"
               id="path2729" />
          </g>
          <g
             id="g2731"
             transform="translate(1544.1771,617.1702)">
            <path
               d="M 0,0 3.402,10.021 H 8.084 L 1.829,-6.659 C 1.194,-8.365 0.787,-9.384 0.605,-9.712 c -0.183,-0.33 -0.373,-0.615 -0.569,-0.859 -0.438,-0.538 -0.974,-0.933 -1.609,-1.189 -0.635,-0.257 -1.403,-0.385 -2.302,-0.385 -0.319,0 -0.648,0.012 -0.988,0.035 -0.344,0.026 -0.697,0.074 -1.063,0.148 l 0.366,3.694 c 0.22,-0.023 0.403,-0.042 0.549,-0.055 0.148,-0.012 0.292,-0.017 0.439,-0.017 0.585,0 1.03,0.122 1.334,0.366 0.305,0.244 0.555,0.658 0.751,1.242 l 0.329,1.061 -5.926,15.692 h 4.682 z"
               style="fill:#000000;fill-opacity:1;fill-rule:nonzero;stroke:none"
               id="path2733" />
          </g>
          <g
             id="g2735"
             transform="translate(1554.931,619.803)">
            <path
               d="m 0,0 c -0.51,0.414 -0.895,0.883 -1.151,1.408 -0.256,0.525 -0.385,1.103 -0.385,1.738 0,1.414 0.542,2.542 1.629,3.383 1.084,0.842 2.457,1.262 4.113,1.262 0.977,0 1.948,-0.109 2.91,-0.329 C 8.079,7.243 8.949,6.926 9.732,6.512 L 8.157,3.219 C 7.475,3.56 6.817,3.816 6.182,3.986 5.547,4.156 4.964,4.242 4.428,4.242 3.89,4.242 3.488,4.156 3.219,3.986 2.95,3.816 2.819,3.572 2.819,3.255 2.819,3.011 2.916,2.809 3.111,2.652 3.305,2.492 3.989,2.122 5.16,1.536 7.109,0.584 8.366,-0.237 8.927,-0.933 c 0.56,-0.695 0.839,-1.616 0.839,-2.761 0,-1.391 -0.542,-2.488 -1.624,-3.293 -1.087,-0.804 -2.496,-1.206 -4.226,-1.206 -1,0 -1.934,0.072 -2.799,0.219 -0.865,0.147 -1.823,0.414 -2.871,0.805 l 1.281,3.437 c 0.804,-0.317 1.553,-0.548 2.25,-0.693 0.693,-0.147 1.356,-0.221 1.991,-0.221 0.538,0 0.966,0.097 1.282,0.292 0.314,0.196 0.476,0.452 0.476,0.769 0,0.267 -0.093,0.494 -0.276,0.677 C 5.067,-2.725 4.376,-2.353 3.184,-1.792 2.137,-1.305 1.416,-0.945 1.026,-0.714 0.635,-0.481 0.295,-0.244 0,0"
               style="fill:#000000;fill-opacity:1;fill-rule:nonzero;stroke:none"
               id="path2737" />
          </g>
          <path
             d="m 1567.809,627.191 h 4.389 v -15.179 h -4.389 z m 2.194,1.757 -3.255,3.254 3.255,3.257 3.256,-3.257 z"
             style="fill:#000000;fill-opacity:1;fill-rule:nonzero;stroke:none"
             id="path2739" />
          <g
             id="g2741"
             transform="translate(1575.6343,618.0464)">
            <path
               d="m 0,0 v 2.597 c 0,2.074 0.521,3.751 1.556,5.03 1.035,1.28 2.457,1.921 4.262,1.921 0.975,0 1.814,-0.172 2.522,-0.513 0.708,-0.342 1.293,-0.853 1.758,-1.536 l 0.473,1.646 h 3.255 V -12.618 H 9.437 V 2.744 C 9.437,3.671 9.213,4.402 8.761,4.938 8.31,5.476 7.705,5.742 6.952,5.742 6.096,5.742 5.459,5.482 5.031,4.957 4.604,4.432 4.389,3.646 4.389,2.597 V 0 c 0,-0.927 0.173,-1.616 0.515,-2.066 0.34,-0.451 0.877,-0.676 1.609,-0.676 0.194,0 0.387,0.017 0.583,0.055 0.196,0.035 0.439,0.09 0.732,0.163 L 8.744,-5.633 C 8.232,-5.925 7.718,-6.131 7.206,-6.253 6.696,-6.375 6.158,-6.436 5.599,-6.436 3.817,-6.436 2.438,-5.865 1.463,-4.717 0.488,-3.572 0,-1.998 0,0"
               style="fill:#000000;fill-opacity:1;fill-rule:nonzero;stroke:none"
               id="path2743" />
          </g>
          <g
             id="g2745"
             transform="translate(1602.6288,618.4119)">
            <path
               d="M 0,0 V 8.779 H 4.39 V -6.4 H 1.134 l -0.476,1.645 c -0.535,-0.683 -1.183,-1.193 -1.938,-1.536 -0.757,-0.34 -1.599,-0.511 -2.524,-0.511 -1.829,0 -3.212,0.591 -4.153,1.774 -0.938,1.183 -1.407,2.883 -1.407,5.102 v 8.705 h 4.389 V 0.074 c 0,-1.074 0.177,-1.854 0.532,-2.341 0.353,-0.488 0.929,-0.731 1.734,-0.731 0.856,0 1.521,0.262 1.995,0.785 C -0.239,-1.687 0,-0.95 0,0"
               style="fill:#000000;fill-opacity:1;fill-rule:nonzero;stroke:none"
               id="path2747" />
          </g>
          <g
             id="g2749"
             transform="translate(1619.8937,621.1205)">
            <path
               d="M 0,0 V 0.145 C 0,1.219 -0.213,2.011 -0.639,2.524 -1.065,3.034 -1.706,3.291 -2.56,3.291 -3.389,3.291 -4.017,3.028 -4.445,2.505 -4.871,1.979 -5.084,1.193 -5.084,0.145 V 0 Z m -9.437,-2.709 v 2.379 c 0,2.171 0.596,3.845 1.792,5.031 1.197,1.18 2.89,1.773 5.085,1.773 2.171,0 3.857,-0.609 5.067,-1.83 C 3.712,3.425 4.318,1.706 4.318,-0.513 4.318,-0.952 4.312,-1.349 4.299,-1.702 4.286,-2.055 4.254,-2.513 4.206,-3.074 h -9.29 c 0,-1.049 0.258,-1.822 0.768,-2.322 0.512,-0.5 1.304,-0.75 2.377,-0.75 0.562,0 1.22,0.086 1.976,0.256 0.755,0.17 1.402,0.378 1.938,0.622 L 3.402,-8.34 C 2.548,-8.756 1.676,-9.054 0.787,-9.237 -0.103,-9.42 -1.123,-9.51 -2.268,-9.51 c -2.317,0 -4.09,0.584 -5.323,1.754 -1.231,1.171 -1.846,2.854 -1.846,5.047"
               style="fill:#000000;fill-opacity:1;fill-rule:nonzero;stroke:none"
               id="path2751" />
          </g>
          <g
             id="g2753"
             transform="translate(1633.647,622.2531)">
            <path
               d="m 0,0 c -0.585,0.513 -1.011,1.074 -1.28,1.683 -0.269,0.609 -0.402,1.328 -0.402,2.158 0,1.439 0.602,2.639 1.809,3.603 1.207,0.963 2.664,1.444 4.372,1.444 0.999,0 1.943,-0.164 2.836,-0.494 0.889,-0.327 1.883,-0.907 2.98,-1.737 0.805,-0.633 1.476,-1.078 2.012,-1.335 0.536,-0.256 1.121,-0.384 1.756,-0.384 0.632,0 1.097,0.281 1.39,0.842 0.29,0.561 0.499,1.463 0.621,2.707 h 3.329 V 4.938 h 2.705 V 1.391 h -2.705 v -5.963 c 0,-0.706 0.14,-1.225 0.42,-1.555 0.282,-0.328 0.751,-0.494 1.409,-0.494 h 0.456 c 0.11,0 0.226,0.013 0.349,0.038 l 0.365,-3.841 c -0.269,-0.049 -0.531,-0.08 -0.787,-0.093 -0.254,-0.01 -0.506,-0.016 -0.749,-0.016 -1.878,0 -3.324,0.516 -4.333,1.554 -1.014,1.036 -1.519,2.469 -1.519,4.297 v 6.073 c -0.928,0 -1.902,0.183 -2.927,0.548 C 11.083,2.305 10.07,2.828 9.071,3.511 8.194,4.12 7.43,4.543 6.786,4.774 6.139,5.005 5.45,5.121 4.719,5.121 4.108,5.121 3.628,4.992 3.275,4.738 2.92,4.482 2.743,4.12 2.743,3.658 2.743,3.341 2.851,3.061 3.073,2.818 3.292,2.574 4.194,2 5.779,1.097 6.976,0.414 7.808,-0.086 8.284,-0.401 8.762,-0.719 9.168,-1.023 9.51,-1.315 c 0.586,-0.538 1.012,-1.116 1.281,-1.738 0.266,-0.622 0.4,-1.349 0.4,-2.177 0,-1.683 -0.603,-3.007 -1.808,-3.969 -1.209,-0.963 -2.836,-1.444 -4.884,-1.444 -1.024,0 -2.035,0.103 -3.036,0.309 -1,0.208 -2.145,0.555 -3.438,1.045 l 1.353,3.62 c 1.341,-0.465 2.365,-0.775 3.073,-0.933 0.705,-0.16 1.388,-0.237 2.048,-0.237 0.684,0 1.231,0.146 1.646,0.439 0.413,0.292 0.622,0.67 0.622,1.132 0,0.416 -0.189,0.817 -0.568,1.208 -0.379,0.389 -1.224,0.963 -2.541,1.719 -1.246,0.708 -2.085,1.208 -2.524,1.5 C 0.695,-0.549 0.316,-0.269 0,0"
               style="fill:#000000;fill-opacity:1;fill-rule:nonzero;stroke:none"
               id="path2755" />
          </g>
          <g
             id="g2757"
             transform="translate(1662.3608,627.1909)">
            <path
               d="m 0,0 0.732,-2.45 c 0.486,0.901 1.108,1.584 1.865,2.049 0.755,0.462 1.62,0.695 2.597,0.695 0.267,0 0.549,-0.019 0.841,-0.056 C 6.326,0.202 6.631,0.147 6.95,0.074 L 6.218,-4.169 C 5.9,-4.12 5.631,-4.085 5.414,-4.06 5.194,-4.036 4.975,-4.024 4.755,-4.024 3.634,-4.024 2.748,-4.389 2.104,-5.121 1.457,-5.852 1.132,-6.9 1.132,-8.266 v -6.913 h -4.39 V 0 Z"
               style="fill:#000000;fill-opacity:1;fill-rule:nonzero;stroke:none"
               id="path2759" />
          </g>
          <g
             id="g2761"
             transform="translate(1676.0388,615.0102)">
            <path
               d="M 0,0 C 0.902,0 1.605,0.281 2.104,0.843 2.601,1.404 2.842,2.196 2.817,3.219 V 4.171 C 1.11,4.097 -0.06,3.879 -0.695,3.513 -1.33,3.148 -1.646,2.549 -1.646,1.721 -1.646,1.183 -1.5,0.763 -1.207,0.458 -0.914,0.153 -0.512,0 0,0 m -3.767,8.23 -1.281,3.075 c 0.975,0.414 1.945,0.731 2.907,0.949 0.966,0.221 1.909,0.33 2.836,0.33 2.025,0 3.604,-0.494 4.738,-1.481 1.132,-0.988 1.7,-2.372 1.7,-4.152 v -9.95 H 3.877 L 3.404,-1.353 C 2.89,-2.011 2.249,-2.517 1.483,-2.87 0.714,-3.223 -0.133,-3.4 -1.061,-3.4 c -1.536,0 -2.737,0.382 -3.604,1.152 -0.865,0.767 -1.297,1.847 -1.297,3.236 0,1.903 0.731,3.33 2.195,4.28 1.463,0.952 3.67,1.452 6.62,1.5 V 6.951 C 2.853,7.682 2.634,8.243 2.195,8.634 1.756,9.023 1.11,9.218 0.258,9.218 -0.376,9.218 -1.018,9.138 -1.663,8.981 -2.311,8.823 -3.012,8.573 -3.767,8.23"
               style="fill:#000000;fill-opacity:1;fill-rule:nonzero;stroke:none"
               id="path2763" />
          </g>
          <g
             id="g2765"
             transform="translate(1687.4512,619.803)">
            <path
               d="m 0,0 c -0.51,0.414 -0.895,0.883 -1.151,1.408 -0.256,0.525 -0.385,1.103 -0.385,1.738 0,1.414 0.542,2.542 1.629,3.383 1.084,0.842 2.457,1.262 4.114,1.262 0.974,0 1.947,-0.109 2.909,-0.329 C 8.079,7.243 8.949,6.926 9.732,6.512 L 8.157,3.219 C 7.475,3.56 6.817,3.816 6.182,3.986 5.547,4.156 4.964,4.242 4.428,4.242 3.89,4.242 3.488,4.156 3.219,3.986 2.95,3.816 2.819,3.572 2.819,3.255 2.819,3.011 2.916,2.809 3.109,2.652 3.305,2.492 3.989,2.122 5.16,1.536 7.109,0.584 8.366,-0.237 8.927,-0.933 9.487,-1.628 9.766,-2.549 9.766,-3.694 9.766,-5.085 9.224,-6.182 8.14,-6.987 7.053,-7.791 5.646,-8.193 3.914,-8.193 c -0.998,0 -1.932,0.072 -2.797,0.219 -0.867,0.147 -1.823,0.414 -2.871,0.805 l 1.279,3.437 c 0.804,-0.317 1.555,-0.548 2.25,-0.693 0.695,-0.147 1.358,-0.221 1.993,-0.221 0.538,0 0.964,0.097 1.282,0.292 0.314,0.196 0.476,0.452 0.476,0.769 0,0.267 -0.093,0.494 -0.276,0.677 -0.183,0.183 -0.873,0.555 -2.065,1.116 -1.05,0.487 -1.771,0.847 -2.159,1.078 C 0.635,-0.481 0.295,-0.244 0,0"
               style="fill:#000000;fill-opacity:1;fill-rule:nonzero;stroke:none"
               id="path2767" />
          </g>
          <g
             id="g2769"
             transform="translate(1700.3289,612.0117)">
            <path
               d="M 0,0 V 21.727 H 4.389 V 6.4 c 0,-0.926 0.224,-1.658 0.676,-2.193 0.452,-0.536 1.054,-0.805 1.812,-0.805 0.852,0 1.493,0.262 1.919,0.786 0.428,0.525 0.641,1.311 0.641,2.359 v 2.598 c 0,0.926 -0.172,1.615 -0.512,2.067 -0.342,0.45 -0.878,0.677 -1.609,0.677 -0.196,0 -0.392,-0.019 -0.588,-0.057 -0.193,-0.036 -0.439,-0.09 -0.729,-0.164 l -0.915,3.11 c 0.512,0.292 1.022,0.5 1.537,0.622 0.512,0.122 1.047,0.183 1.609,0.183 1.78,0 3.159,-0.574 4.133,-1.719 0.975,-1.147 1.461,-2.721 1.461,-4.719 V 6.547 c 0,-2.073 -0.516,-3.748 -1.551,-5.03 -1.039,-1.28 -2.459,-1.918 -4.262,-1.918 -0.977,0 -1.819,0.17 -2.526,0.51 C 4.779,0.452 4.194,0.962 3.731,1.645 L 3.255,0 Z"
               style="fill:#000000;fill-opacity:1;fill-rule:nonzero;stroke:none"
               id="path2771" />
          </g>
          <g
             id="g2773"
             transform="translate(1726.3704,618.3027)">
            <path
               d="M 0,0 V 2.597 C 0,3.694 -0.209,4.505 -0.622,5.03 -1.035,5.554 -1.67,5.816 -2.524,5.816 -3.378,5.816 -4.011,5.554 -4.426,5.03 -4.841,4.505 -5.048,3.694 -5.048,2.597 V 0 c 0,-1.122 0.2,-1.937 0.605,-2.45 0.4,-0.513 1.041,-0.769 1.919,-0.769 0.878,0 1.517,0.256 1.921,0.769 C -0.202,-1.937 0,-1.122 0,0 m -9.401,0.109 v 2.379 c 0,2.171 0.596,3.845 1.793,5.03 1.196,1.181 2.889,1.774 5.084,1.774 2.195,0 3.89,-0.593 5.084,-1.774 C 3.755,6.333 4.353,4.659 4.353,2.488 V 0.109 c 0,-2.17 -0.598,-3.845 -1.793,-5.028 -1.194,-1.183 -2.889,-1.773 -5.084,-1.773 -2.195,0 -3.888,0.59 -5.084,1.773 -1.197,1.183 -1.793,2.858 -1.793,5.028"
               style="fill:#000000;fill-opacity:1;fill-rule:nonzero;stroke:none"
               id="path2775" />
          </g>
          <g
             id="g2777"
             transform="translate(1743.1619,618.4119)">
            <path
               d="M 0,0 V 8.779 H 4.389 V -6.4 H 1.132 l -0.476,1.645 c -0.536,-0.683 -1.181,-1.193 -1.938,-1.536 -0.758,-0.34 -1.597,-0.511 -2.524,-0.511 -1.827,0 -3.213,0.591 -4.151,1.774 -0.94,1.183 -1.409,2.883 -1.409,5.102 v 8.705 h 4.389 V 0.074 c 0,-1.074 0.177,-1.854 0.532,-2.341 0.352,-0.488 0.931,-0.731 1.736,-0.731 0.854,0 1.519,0.262 1.995,0.785 C -0.241,-1.687 0,-0.95 0,0"
               style="fill:#000000;fill-opacity:1;fill-rule:nonzero;stroke:none"
               id="path2779" />
          </g>
          <g
             id="g2781"
             transform="translate(1754.9766,627.1909)">
            <path
               d="m 0,0 0.731,-2.45 c 0.487,0.901 1.109,1.584 1.866,2.049 0.755,0.462 1.62,0.695 2.597,0.695 0.267,0 0.549,-0.019 0.841,-0.056 C 6.326,0.202 6.631,0.147 6.948,0.074 L 6.218,-4.169 C 5.9,-4.12 5.631,-4.085 5.413,-4.06 5.194,-4.036 4.972,-4.024 4.755,-4.024 3.632,-4.024 2.748,-4.389 2.104,-5.121 1.457,-5.852 1.132,-6.9 1.132,-8.266 v -6.913 h -4.39 V 0 Z"
               style="fill:#000000;fill-opacity:1;fill-rule:nonzero;stroke:none"
               id="path2783" />
          </g>
          <g
             id="g2785"
             transform="translate(1763.0193,618.0464)">
            <path
               d="m 0,0 v 2.597 c 0,2.074 0.519,3.751 1.556,5.03 1.035,1.28 2.457,1.921 4.26,1.921 0.977,0 1.816,-0.172 2.524,-0.513 0.708,-0.342 1.293,-0.853 1.758,-1.536 l 0.473,1.646 h 3.256 v -15.18 c 0,-2.366 -0.629,-4.114 -1.883,-5.249 -1.257,-1.134 -3.152,-1.702 -5.689,-1.702 -0.828,0 -1.676,0.08 -2.541,0.24 -0.867,0.157 -1.752,0.395 -2.653,0.712 l 1.136,3.476 c 0.828,-0.269 1.536,-0.463 2.119,-0.587 0.588,-0.121 1.123,-0.182 1.61,-0.182 1.243,0 2.141,0.243 2.689,0.731 0.549,0.489 0.822,1.343 0.822,2.561 V 2.744 C 9.437,3.671 9.213,4.402 8.762,4.938 8.31,5.476 7.705,5.742 6.952,5.742 6.096,5.742 5.457,5.482 5.031,4.957 4.605,4.432 4.389,3.646 4.389,2.597 V 0 c 0,-0.927 0.17,-1.616 0.515,-2.066 0.34,-0.451 0.877,-0.676 1.609,-0.676 0.192,0 0.387,0.017 0.583,0.055 0.196,0.035 0.439,0.09 0.732,0.163 L 8.744,-5.633 C 8.23,-5.925 7.718,-6.131 7.206,-6.253 6.696,-6.375 6.158,-6.436 5.599,-6.436 3.817,-6.436 2.438,-5.865 1.463,-4.717 0.489,-3.572 0,-1.998 0,0"
               style="fill:#000000;fill-opacity:1;fill-rule:nonzero;stroke:none"
               id="path2787" />
          </g>
          <path
             d="m 1664.682,646.621 h -6.1 v 50.683 h 6.1 z"
             style="fill:#ffffff;fill-opacity:1;fill-rule:nonzero;stroke:#000000;stroke-width:1.076;stroke-linecap:butt;stroke-linejoin:miter;stroke-miterlimit:10;stroke-dasharray:none;stroke-opacity:1"
             id="path2789" />
          <path
             d="m 1670.197,646.621 h -6.1 v 50.683 h 6.1 z"
             style="fill:#ffffff;fill-opacity:1;fill-rule:nonzero;stroke:#000000;stroke-width:1.076;stroke-linecap:butt;stroke-linejoin:miter;stroke-miterlimit:10;stroke-dasharray:none;stroke-opacity:1"
             id="path2791" />
        </g>
      </g>
      <g
         id="g2793"
         transform="matrix(0.35277777,0,0,-0.35277777,-472.64316,262.78819)">
        <g
           id="g2795"
           clip-path="url(#clipPath2799)">
          <path
             d="M 1532.962,414.159 H 1160.08 v 310.518 h 372.882 z"
             style="fill:#ffffff;fill-opacity:1;fill-rule:nonzero;stroke:none"
             id="path2801" />
          <g
             id="g2803"
             transform="translate(1488.6136,641.2343)">
            <path
               d="m 0,0 c -13.417,2.302 -26.033,3.081 -37.201,3.027 v 0.002 l 0.007,0.016 h -0.012 c -0.609,2.858 -2.303,5.477 -4.941,7.178 -1.938,1.251 -4.116,1.829 -6.251,1.816 -4.01,10.805 -7.325,21.311 -10.066,31.448 1.715,1.127 3.236,2.608 4.453,4.414 15.522,-3.8 31.24,-6.014 47.027,-6.617 1.127,-3.5 3.42,-6.651 6.753,-8.8 C 1.471,31.385 3.301,30.659 5.17,30.252 4.802,21.424 4.86,12.563 5.344,3.689 3.293,3.04 1.413,1.784 0,0 m -110.3,-12.334 c -12.523,-5.34 -23.542,-11.53 -32.897,-17.628 -2.058,2.076 -4.912,3.361 -8.06,3.361 -2.307,0 -4.446,-0.694 -6.237,-1.866 -9.229,6.905 -17.71,13.937 -25.51,20.965 0.829,1.877 1.303,3.945 1.346,6.122 15.101,5.226 29.51,11.892 43.1,19.949 2.845,-2.333 6.481,-3.736 10.446,-3.736 2.024,0 3.954,0.38 5.743,1.053 4.483,-7.613 9.339,-15.027 14.556,-22.219 -1.371,-1.658 -2.269,-3.735 -2.487,-6.001 M 17.954,32.697 V 57.048 H -3.795 c -0.479,-0.559 -0.933,-1.152 -1.343,-1.788 -1.076,-1.666 -1.795,-3.463 -2.211,-5.296 -16.263,0.634 -31.026,2.968 -43.972,6.08 0.015,0.335 -0.014,0.669 -0.02,1.004 h -31.982 l 0.22,-0.086 c -0.053,-5.28 2.499,-10.475 7.271,-13.555 3.372,-2.174 7.25,-2.904 10.936,-2.355 2.733,-10.051 6.026,-20.443 9.974,-31.128 -1.141,-0.807 -2.159,-1.845 -2.966,-3.094 -1.003,-1.554 -1.568,-3.265 -1.747,-4.99 -14.167,-1.425 -25.751,-3.858 -33.61,-5.864 -1.725,1.105 -3.769,1.751 -5.972,1.751 -0.953,0 -1.87,-0.133 -2.758,-0.359 -5.37,7.413 -10.205,14.846 -14.543,22.25 3.01,2.987 4.873,7.116 4.873,11.689 0,1.82 -0.306,3.57 -0.848,5.203 1.017,0.81 2.032,1.609 3.034,2.434 6.847,5.612 13.411,11.662 19.706,18.104 h -12.382 c -5.037,-4.782 -10.121,-9.214 -15.223,-13.288 -2.885,2.503 -6.642,4.018 -10.754,4.018 -0.909,0 -1.789,-0.084 -2.656,-0.232 -1.406,3.195 -2.716,6.361 -3.959,9.502 h -7.433 c 1.556,-4.05 3.193,-8.061 4.928,-12.02 -4.43,-2.958 -7.357,-7.994 -7.357,-13.721 0,-1.984 0.373,-3.88 1.016,-5.646 -14.01,-8.289 -27.676,-14.333 -40.239,-18.744 -2.764,4.729 -7.872,7.916 -13.741,7.916 -2.396,0 -4.66,-0.544 -6.698,-1.489 -14.056,15.031 -25.082,29.491 -33.525,42.118 -0.196,0.296 -0.388,0.592 -0.583,0.88 0.184,0.22 0.328,0.472 0.495,0.706 h -18.424 c 0.363,-0.509 0.758,-0.992 1.198,-1.434 -6.686,-8.881 -12.964,-18.199 -18.834,-27.912 V 17.564 c 7.349,12.875 15.157,24.626 23.244,35.309 1.138,-0.38 2.354,-0.599 3.623,-0.599 1.013,0 1.986,0.148 2.921,0.391 0.168,-0.243 0.321,-0.492 0.489,-0.741 8.56,-12.832 19.719,-27.5 33.931,-42.75 -2.34,-2.769 -3.755,-6.347 -3.755,-10.251 l 0.01,-0.217 c -22.827,-4.739 -47.797,-4.667 -60.463,-4.217 v -9.175 c 5.275,-0.09 12.16,-0.204 13.071,-0.204 12.38,0 29.737,1.081 49.839,5.343 2.819,-4.465 7.782,-7.445 13.461,-7.445 4.012,0 7.668,1.495 10.466,3.953 7.744,-6.959 16.149,-13.907 25.26,-20.743 -0.522,-1.294 -0.813,-2.72 -0.813,-4.204 0,-1.854 0.454,-3.598 1.238,-5.143 -1.589,-1.269 -3.118,-2.524 -4.596,-3.764 h 21.784 c 0.152,0.121 0.308,0.237 0.454,0.366 0.186,-0.123 0.382,-0.243 0.567,-0.366 h 12.702 c -3.314,2.055 -6.559,4.132 -9.721,6.23 0.209,0.862 0.333,1.749 0.333,2.677 0,1.283 -0.226,2.509 -0.614,3.662 8.833,5.762 19.21,11.619 30.953,16.72 1.65,-4.082 5.648,-6.96 10.323,-6.96 1.745,0 3.396,0.411 4.867,1.126 4.765,-5.606 14.312,-15.789 21.836,-23.455 h 10.631 c -9.362,9.167 -22.716,22.538 -27.512,28.21 0.841,1.56 1.326,3.356 1.326,5.264 0,1.228 -0.206,2.418 -0.576,3.531 9.305,2.828 19.246,5.055 29.755,6.392 0.843,-2.14 2.313,-4.062 4.397,-5.408 2.412,-1.557 5.193,-2.075 7.836,-1.678 4.348,-9.95 12.001,-24.93 18.213,-36.311 h 7.991 c -7.208,12.667 -14.884,27.497 -20.037,39.31 0.639,0.614 1.224,1.291 1.729,2.07 0.695,1.076 1.17,2.231 1.466,3.41 10.548,0.052 22.443,-0.654 35.076,-2.741 -0.824,-4.324 0.968,-8.909 4.9,-11.445 1.467,-0.948 3.073,-1.496 4.697,-1.692 1.107,-8.386 3.402,-19.719 5.49,-28.912 h 5.086 v 7.811 c -1.617,7.61 -2.888,15.084 -3.833,22.406 1.492,0.82 2.817,2.011 3.833,3.522 v 12.442 c -0.815,1.22 -1.874,2.305 -3.184,3.15 -0.8,0.517 -1.647,0.905 -2.511,1.192 -0.496,9.142 -0.529,18.011 -0.153,26.584 2.076,0.44 4.066,1.275 5.848,2.483"
               style="fill:#005da9;fill-opacity:1;fill-rule:nonzero;stroke:none"
               id="path2805" />
          </g>
          <g
             id="g2807"
             transform="translate(1439.4022,594.3416)">
            <path
               d="m 0,0 h -10.642 c -5.895,5.889 -12.231,12.252 -15.875,16.007 -0.079,-0.662 -0.16,-1.327 -0.244,-1.991 -5.661,5.733 -10.811,11.105 -13.422,14.193 0.84,1.561 1.326,3.356 1.326,5.265 0,1.227 -0.206,2.418 -0.576,3.531 4.79,1.456 9.75,2.753 14.87,3.851 -0.018,-0.424 -0.036,-0.85 -0.054,-1.277 0.513,-0.768 0.963,-1.592 1.336,-2.473 0.312,-0.732 0.533,-1.48 0.722,-2.225 C -20.013,34.484 -9,33.196 4.657,31.655 5.981,28.8 7.475,25.7 9.059,22.499 c -16.215,1.853 -29.814,3.438 -32.062,3.779 -0.333,-0.917 -0.749,-1.804 -1.251,-2.639 C -21.885,21.005 -9.734,9.321 0,0 m -28.911,0 h -6.756 c 0.823,3.337 1.544,6.908 2.168,10.624 1.791,-1.904 3.626,-3.834 5.428,-5.711 -0.264,-1.64 -0.544,-3.279 -0.84,-4.913 m -96.973,0 h -6.143 c -3.542,5.25 -7.268,10.186 -11.116,14.802 -0.878,-0.771 -1.892,-1.425 -3.032,-1.907 -1.416,-0.598 -2.887,-0.881 -4.334,-0.881 -0.343,0 -0.686,0.017 -1.025,0.048 -1.981,-3.908 -3.89,-7.938 -5.737,-12.062 h -7.484 c 2.179,5.007 4.476,9.941 6.915,14.784 -1.232,1.074 -2.254,2.426 -2.931,4.037 -1.825,4.307 -0.723,9.113 2.394,12.227 -2.084,1.982 -4.174,3.886 -6.263,5.714 0.94,0.187 1.885,0.382 2.838,0.584 2.818,-4.465 7.782,-7.445 13.461,-7.445 2.934,0 5.677,0.799 8.033,2.19 -0.449,-0.728 -0.896,-1.46 -1.34,-2.197 0.551,-0.719 1.034,-1.523 1.405,-2.401 1.167,-2.754 1.129,-5.716 0.135,-8.314 4.973,-5.874 9.75,-12.277 14.224,-19.179 m -71.657,0 h -7.543 c 1.023,9.422 2.487,21.678 3.891,32.25 2.243,0.105 4.586,0.247 7.024,0.434 C -195.511,21.881 -196.731,9.621 -197.541,0 M 67.165,12.416 c -0.378,0.526 -0.803,1.111 -1.277,1.759 -1.026,5.423 -1.875,10.772 -2.556,16.042 1.492,0.82 2.817,2.011 3.833,3.522 v 12.442 c -0.787,1.178 -1.802,2.23 -3.05,3.063 -0.395,8.903 -0.415,18.578 0.186,28.795 0.998,0.418 1.959,0.936 2.864,1.55 V 103.94 12.416 m -106.183,4.155 c -3.879,0.536 -7.47,2.595 -9.88,5.813 1.336,0.135 2.604,0.509 3.759,1.071 1.591,-1.873 3.716,-4.255 6.121,-6.884 m 97.573,0.353 c -10.714,1.187 -26.523,2.962 -41.402,4.653 -1.58,3.115 -3.098,6.198 -4.519,9.182 13.971,-1.561 29.388,-3.248 40.991,-4.486 -0.414,1.202 -0.668,2.467 -0.754,3.767 1.19,-0.607 2.449,-0.975 3.719,-1.128 0.474,-3.589 1.165,-7.718 1.965,-11.988 M -61.074,34.698 c -15.925,4.725 -31.017,10.825 -45.188,18.28 -1.112,0.582 -2.214,1.192 -3.32,1.795 3.241,1.514 6.442,3.099 9.604,4.757 11.788,-6.036 24.81,-11.442 39.164,-15.877 0.731,-1.035 1.469,-2.067 2.213,-3.094 -1.343,-1.623 -2.232,-3.649 -2.473,-5.861 m 107.892,4.58 c -0.813,1.049 -1.64,2.111 -2.481,3.191 0.881,-0.133 1.767,-0.273 2.656,-0.42 -0.175,-0.919 -0.232,-1.85 -0.175,-2.771 m -246.736,2.192 c 0.581,4.007 1.12,7.415 1.575,9.837 -2.403,1.158 -4.412,3.155 -5.533,5.802 -1.001,2.371 -1.124,4.876 -0.545,7.193 -5.643,3.058 -10.959,5.636 -15.794,7.802 0.906,1.496 1.818,2.975 2.736,4.439 4.735,-2.145 9.918,-4.682 15.402,-7.659 1.116,1.323 2.545,2.418 4.257,3.141 1.367,0.576 2.788,0.857 4.19,0.889 1.511,6.081 3.139,11.977 4.863,17.689 1.621,-2.272 3.318,-4.59 5.092,-6.944 -1.182,-4.131 -2.312,-8.357 -3.385,-12.679 1.783,-1.188 3.252,-2.891 4.15,-5.015 1.223,-2.899 1.154,-6.025 0.046,-8.725 5.249,-3.54 10.733,-7.564 16.284,-12.107 -2.242,-0.432 -4.502,-0.819 -6.762,-1.166 -4.253,3.334 -8.442,6.356 -12.49,9.083 -0.906,-0.809 -1.951,-1.496 -3.134,-1.991 -0.851,-0.359 -1.72,-0.6 -2.596,-0.739 -0.457,-2.429 -0.921,-5.301 -1.38,-8.466 -2.376,-0.16 -4.708,-0.287 -6.976,-0.384 m 155.885,1.398 c -1.683,1.078 -3.67,1.72 -5.811,1.751 -3.87,5.449 -7.8,11.378 -11.645,17.76 -0.776,-0.558 -1.55,-1.097 -2.324,-1.661 -1.199,1.933 -2.363,3.864 -3.494,5.793 0.151,0.15 0.299,0.302 0.443,0.457 0.634,0.453 1.272,0.899 1.905,1.352 -0.114,0.2 -0.227,0.399 -0.341,0.597 1.76,2.572 2.809,5.667 2.863,9.007 0.819,-1.541 1.641,-3.049 2.464,-4.523 0.216,-0.385 0.435,-0.759 0.652,-1.141 5.418,3.69 10.92,7.199 16.518,10.49 -0.45,1.567 -0.575,3.262 -0.272,4.98 0.804,4.61 4.338,8.048 8.643,8.972 -0.596,2.464 -1.232,4.873 -1.895,7.238 h 2.215 l 0.221,-0.085 c -0.054,-5.28 2.499,-10.476 7.271,-13.555 2.467,-1.591 5.205,-2.409 7.941,-2.518 -0.772,-0.367 -1.545,-0.74 -2.319,-1.118 0.07,-0.906 0.04,-1.842 -0.125,-2.781 -0.515,-2.945 -2.151,-5.417 -4.399,-7.057 0.894,-6.857 1.406,-17.468 1.144,-29.911 -2.006,-0.322 -3.93,-0.657 -5.77,-0.999 0.521,13.277 0.245,24.47 -0.296,28.878 -0.546,-0.081 -1.104,-0.125 -1.669,-0.125 -0.63,0 -1.27,0.054 -1.912,0.168 -1.874,0.326 -3.555,1.108 -4.958,2.206 -5.619,-3.283 -11.253,-6.866 -16.883,-10.717 4.602,-7.66 9.347,-14.681 13.978,-20.983 1.609,0.563 3.257,0.83 4.882,0.83 1.545,0 3.07,-0.242 4.522,-0.704 -4.431,-0.873 -8.306,-1.773 -11.549,-2.601 m -88.518,1.09 c 0.059,0.511 0.094,1.03 0.104,1.555 0.434,0.149 0.865,0.3 1.297,0.453 -0.469,-0.665 -0.936,-1.335 -1.401,-2.008 m 181.762,2.935 c -3.187,0.547 -6.331,1.008 -9.42,1.392 -11.187,14.259 -24.143,30.389 -36.18,44.609 5.124,-1.061 10.269,-1.95 15.426,-2.667 -0.693,-0.091 -1.397,-0.138 -2.11,-0.138 -0.93,0 -1.874,0.08 -2.825,0.242 -0.464,0.083 -0.919,0.194 -1.367,0.313 C 23.55,78.086 34.906,64.475 44.942,52.24 35.954,63.283 28.034,74.832 21.252,86.866 c -0.621,1.091 -1.217,2.199 -1.817,3.306 3.542,-0.485 7.094,-0.89 10.648,-1.213 6.63,-11.461 14.637,-23.062 24.291,-34.572 0.052,-1.268 0.112,-2.536 0.182,-3.805 -2.007,-0.635 -3.849,-1.85 -5.251,-3.573 -0.918,1.072 -1.826,2.15 -2.723,3.232 0.906,-1.108 1.8,-2.203 2.682,-3.283 -0.018,-0.022 -0.035,-0.044 -0.053,-0.065 m -167.675,3.953 c 2.869,1.199 5.71,2.452 8.524,3.76 -1.23,-1.045 -2.638,-1.924 -4.205,-2.592 -1.416,-0.598 -2.867,-0.982 -4.319,-1.168 m -15.404,3.223 c 0.446,0.61 0.894,1.219 1.346,1.827 -1.311,1.383 -2.419,3.015 -3.206,4.882 -1.542,3.655 -1.663,7.546 -0.625,11.077 -12.715,9.379 -24.462,20.055 -35.156,31.932 -1.939,-0.777 -3.949,-1.145 -5.927,-1.145 -0.078,0 -0.156,0.001 -0.235,0.002 -1.221,-3.517 -2.408,-7.115 -3.555,-10.792 -1.732,2.376 -3.382,4.707 -4.95,6.983 0.564,1.72 1.136,3.421 1.715,5.105 h 24.514 c 7.982,-8.263 17.306,-16.679 28.174,-24.713 1.373,1.284 2.976,2.363 4.81,3.133 2.091,0.886 4.261,1.305 6.397,1.305 3.247,0 6.413,-0.968 9.094,-2.734 5.182,5.457 10.579,10.739 16.211,15.794 -0.668,0.986 -1.246,2.045 -1.729,3.182 -0.559,1.324 -0.934,2.676 -1.172,4.033 h 5.213 c 1.556,-4.049 3.194,-8.06 4.929,-12.02 -0.403,-0.268 -0.793,-0.554 -1.169,-0.855 -0.406,0.235 -0.805,0.486 -1.193,0.753 -5.409,-4.868 -10.857,-10.149 -16.248,-15.859 0.468,-0.747 0.892,-1.522 1.246,-2.356 0.896,-2.12 1.311,-4.321 1.297,-6.484 -10.324,-5.44 -20.357,-9.706 -29.781,-13.05 m -90.844,20.525 v 5.077 c 0.807,-0.332 1.633,-0.678 2.478,-1.038 -0.834,-1.339 -1.66,-2.685 -2.478,-4.039 m 155.655,16.794 c -2.745,2.062 -6.151,3.283 -9.843,3.283 -0.909,0 -1.789,-0.084 -2.657,-0.232 -1.406,3.195 -2.715,6.36 -3.958,9.501 h 23.985 c -0.85,-4.821 -3.569,-9.231 -7.732,-12.099 0.068,-0.151 0.136,-0.302 0.205,-0.453 m 63.305,2.132 c 0.335,0.405 0.653,0.83 0.952,1.274 0.456,-0.112 0.909,-0.221 1.364,-0.33 -0.77,-0.31 -1.543,-0.625 -2.316,-0.944 m 36.494,4.045 c -11.923,1.056 -22.923,2.985 -32.851,5.372 0.014,0.335 -0.015,0.669 -0.021,1.003 H 33.2 l -0.028,-0.222 c -0.399,-2.267 -1.245,-4.342 -2.43,-6.153"
               style="fill:#a5b7df;fill-opacity:1;fill-rule:nonzero;stroke:none"
               id="path2809" />
          </g>
          <g
             id="g2811"
             transform="translate(1411.3311,599.2549)">
            <path
               d="m 0,0 c -1.802,1.877 -3.636,3.807 -5.427,5.711 0.356,2.125 0.682,4.296 0.977,6.498 -1.476,-0.468 -2.981,-0.691 -4.467,-0.691 -0.682,0 -1.36,0.047 -2.03,0.14 -2.405,2.629 -4.53,5.011 -6.121,6.883 -1.155,-0.561 -2.422,-0.935 -3.759,-1.07 -0.709,0.947 -1.315,1.994 -1.797,3.131 -0.908,2.165 -1.254,4.419 -1.136,6.619 -3.111,0.804 -6.192,1.659 -9.243,2.564 0.241,2.212 1.13,4.237 2.473,5.861 -0.744,1.027 -1.482,2.058 -2.212,3.094 3.889,-1.201 7.875,-2.331 11.96,-3.383 0.361,0.474 0.741,0.941 1.155,1.367 -0.713,0.977 -1.429,1.971 -2.146,2.982 2.141,-0.031 4.128,-0.673 5.811,-1.751 3.243,0.828 7.118,1.728 11.549,2.6 0.785,-0.249 1.547,-0.563 2.28,-0.937 0.019,0.464 0.039,0.925 0.057,1.385 1.839,0.342 3.763,0.677 5.769,0.998 -0.042,-1.976 -0.103,-3.998 -0.185,-6.059 -5.12,-1.098 -10.079,-2.395 -14.87,-3.851 0.37,-1.113 0.576,-2.303 0.576,-3.53 0,-1.909 -0.485,-3.704 -1.326,-5.265 C -9.501,20.208 -4.351,14.836 1.31,9.102 0.927,6.075 0.49,3.035 0,0 m 93.959,9.262 c -0.47,0.641 -0.987,1.344 -1.557,2.111 -1.688,0.186 -3.631,0.4 -5.776,0.637 -0.8,4.27 -1.491,8.4 -1.965,11.989 -1.27,0.153 -2.529,0.521 -3.719,1.128 -0.032,0.472 -0.041,0.949 -0.028,1.43 -1.893,2.466 -3.911,5.081 -6.025,7.808 -0.057,0.92 0,1.851 0.175,2.77 -0.889,0.147 -1.774,0.287 -2.656,0.421 -1.476,1.896 -2.994,3.837 -4.546,5.816 3.089,-0.385 6.233,-0.846 9.421,-1.393 0.017,0.022 0.035,0.044 0.052,0.065 2.13,-2.612 4.183,-5.139 6.136,-7.555 0.094,0.141 0.178,0.291 0.276,0.429 -2.179,2.365 -4.3,4.759 -6.371,7.177 1.402,1.723 3.244,2.939 5.251,3.574 -0.069,1.268 -0.13,2.537 -0.182,3.805 2.617,-3.119 5.356,-6.233 8.219,-9.334 0.559,0.202 1.133,0.39 1.708,0.522 -0.069,1.207 -0.131,2.43 -0.186,3.668 1.248,-0.832 2.263,-1.884 3.051,-3.063 V 28.825 c -1.016,-1.51 -2.342,-2.702 -3.834,-3.521 0.681,-5.271 1.53,-10.62 2.556,-16.042 m -48.735,7.402 c -2.742,0.311 -5.453,0.62 -8.094,0.922 -1.584,3.201 -3.078,6.3 -4.402,9.156 2.578,-0.291 5.248,-0.591 7.977,-0.896 1.421,-2.984 2.939,-6.067 4.519,-9.182 m -165.494,8.324 c -5.679,0 -10.643,2.979 -13.461,7.445 -0.952,-0.202 -1.898,-0.397 -2.838,-0.585 -2.912,2.548 -5.821,4.949 -8.702,7.206 2.26,0.347 4.52,0.734 6.763,1.165 4.239,-3.47 8.518,-7.242 12.76,-11.334 1.095,0.34 2.209,0.503 3.31,0.503 1.086,0 2.159,-0.158 3.184,-0.463 4.205,6.956 8.688,13.702 13.457,20.23 9.424,3.345 19.458,7.61 29.781,13.05 -0.012,-1.708 -0.29,-3.393 -0.81,-4.995 1.615,-0.877 3.255,-1.742 4.919,-2.594 -3.162,-1.657 -6.363,-3.242 -9.604,-4.756 -0.034,0.019 -0.068,0.037 -0.102,0.056 -0.084,-0.075 -0.17,-0.15 -0.256,-0.223 -2.813,-1.308 -5.655,-2.562 -8.523,-3.761 -0.695,-0.089 -1.388,-0.132 -2.078,-0.132 -2.164,0 -4.291,0.429 -6.261,1.239 -1.463,-1.957 -2.913,-3.952 -4.348,-5.987 -0.431,-0.152 -0.863,-0.303 -1.297,-0.453 -0.01,-0.525 -0.045,-1.043 -0.104,-1.554 -2.642,-3.82 -5.231,-7.774 -7.756,-11.867 -2.357,-1.391 -5.1,-2.19 -8.034,-2.19 m -52.852,2.349 c 0.436,3.28 0.866,6.399 1.275,9.22 2.268,0.097 4.6,0.223 6.976,0.384 -0.415,-2.854 -0.826,-5.948 -1.227,-9.17 -2.437,-0.187 -4.781,-0.329 -7.024,-0.434 M -36.02,55.602 c -1.224,1.946 -2.391,3.918 -3.511,5.919 0.245,0.18 0.492,0.357 0.739,0.534 -0.145,-0.155 -0.293,-0.308 -0.443,-0.457 1.13,-1.93 2.294,-3.86 3.493,-5.793 -0.093,-0.067 -0.186,-0.135 -0.278,-0.203 m -1.209,8.402 c -0.216,0.377 -0.434,0.754 -0.647,1.139 -3.515,6.292 -6.701,12.623 -9.587,18.994 -1.43,-0.344 -2.873,-0.51 -4.302,-0.51 -3.303,0 -6.532,0.889 -9.353,2.524 0.377,0.302 0.766,0.588 1.169,0.856 -1.735,3.959 -3.373,7.971 -4.929,12.02 h 7.434 c 1.243,-3.141 2.553,-6.307 3.958,-9.501 0.868,0.148 1.748,0.232 2.657,0.232 3.692,0 7.098,-1.222 9.843,-3.283 2.143,-4.724 4.367,-9.22 6.621,-13.465 -0.055,-3.34 -1.104,-6.434 -2.864,-9.006 m -154.915,3.187 c -1.55,0.695 -3.051,1.347 -4.497,1.959 v 0.531 c 0.818,1.354 1.644,2.7 2.478,4.038 1.527,-0.65 3.115,-1.347 4.755,-2.09 -0.917,-1.463 -1.83,-2.943 -2.736,-4.438 m 284.516,5.935 c 0.026,0.436 0.052,0.873 0.08,1.311 0.461,7.19 1.215,14.241 2.244,21.158 -2.207,0.775 -4.182,1.963 -5.892,3.432 h 6.433 V 74.676 c -0.906,-0.614 -1.867,-1.132 -2.865,-1.55 m -247.976,5.619 c -1.774,2.355 -3.471,4.672 -5.092,6.944 0.842,2.789 1.706,5.532 2.591,8.233 1.568,-2.277 3.218,-4.608 4.95,-6.984 -0.838,-2.688 -1.655,-5.419 -2.449,-8.193 M 9.392,82.869 c -2.736,0.109 -5.474,0.926 -7.941,2.517 -4.772,3.08 -7.325,8.276 -7.271,13.555 l -0.221,0.086 h 3.112 c 0.663,-2.419 1.3,-4.878 1.89,-7.397 2.193,-0.611 4.077,-1.852 5.478,-3.488 6.463,3.151 13.021,6.033 19.67,8.665 -0.66,0.757 -1.3,1.482 -1.95,2.22 h 3.782 c 0.006,-0.335 0.035,-0.668 0.021,-1.004 9.928,-2.387 20.928,-4.316 32.851,-5.371 -0.935,-1.429 -2.082,-2.693 -3.388,-3.757 0.883,-1.613 1.792,-3.23 2.729,-4.849 -3.554,0.323 -7.106,0.727 -10.648,1.213 -0.02,0.035 -0.038,0.069 -0.057,0.104 -0.113,-0.018 -0.226,-0.034 -0.341,-0.049 -5.157,0.716 -10.301,1.606 -15.426,2.667 -0.927,1.095 -1.85,2.18 -2.765,3.251 -1.424,-0.546 -2.851,-1.106 -4.281,-1.681 -0.456,0.108 -0.909,0.218 -1.365,0.33 -0.299,-0.445 -0.617,-0.87 -0.952,-1.274 -4.284,-1.769 -8.595,-3.675 -12.927,-5.738"
               style="fill:#005da9;fill-opacity:1;fill-rule:nonzero;stroke:none"
               id="path2813" />
          </g>
        </g>
      </g>
      <g
         id="g2815"
         transform="matrix(0.35277777,0,0,-0.35277777,-472.64316,262.78819)">
        <g
           id="g2817"
           clip-path="url(#clipPath2821)">
          <path
             d="m 1262.198,595.325 h 102.031 v 102.031 h -102.031 z"
             style="fill:none;stroke:#000000;stroke-width:1.07;stroke-linecap:butt;stroke-linejoin:miter;stroke-miterlimit:4;stroke-dasharray:none;stroke-opacity:1"
             id="path2823" />
        </g>
      </g>
    </g>
  </g>
</svg>
