<svg id="Calque_1" data-name="Calque 1" xmlns="http://www.w3.org/2000/svg" viewBox="0 0 137.6 96.11"><defs><style>.cls-1{fill:#fdfdfd;}.cls-2{fill:#131313;}.cls-3{fill:#035da9;}.cls-4{fill:#a4b7df;}.cls-5{fill:#040404;}</style></defs><path class="cls-1" d="M953.58,594.34c0,.93-.22,1.2-1.17,1.18-2.67-.07-5.35,0-8,0-.93,0-1.11.28-1.11,1.15,0,7.18,0,14.36.05,21.54,0,.94-.24,1.17-1.17,1.16-7.94,0-15.89,0-23.83,0-.94,0-1.16.25-1.16,1.17,0,7.18,0,14.36.05,21.54,0,1-.28,1.16-1.19,1.16q-24.72,0-49.43,0t-49.22,0c-1.19,0-1.4-.33-1.4-1.44q.06-22.68,0-45.35,0-24,0-48c0-1,.24-1.31,1.3-1.3,15.41,0,30.82-.1,46.23,0,19.47.14,38.94,0,58.41.07.89,0,1,.3,1,1.08,0,7.18,0,14.36,0,21.54,0,.94.23,1.17,1.16,1.16,9.46,0,18.92,0,28.39,0,.94,0,1.16.24,1.15,1.16Q953.52,583.2,953.58,594.34Z" transform="translate(-815.98 -547.04)"/><path class="cls-2" d="M866.6,643.13c-16.41,0-32.82,0-49.22,0-1.2,0-1.41-.33-1.4-1.45,0-15.12,0-30.23,0-45.35q0-24,0-48c0-1,.24-1.3,1.29-1.3,15.41,0,30.82-.09,46.23,0,19.47.15,38.94,0,58.41.07.89,0,1,.3,1,1.08,0,7.18,0,14.37,0,21.55,0,.93.24,1.16,1.17,1.16,9.46,0,18.92,0,28.38-.05.94,0,1.16.25,1.16,1.17q-.06,11.13,0,22.26c0,.93-.23,1.21-1.17,1.18-2.68-.06-5.35,0-8,0-.92,0-1.11.27-1.1,1.14,0,7.19,0,14.37,0,21.55,0,.93-.23,1.16-1.16,1.16-7.95,0-15.89,0-23.84-.05-.94,0-1.16.26-1.15,1.17,0,7.18,0,14.36,0,21.55,0,1-.28,1.16-1.19,1.15Q891.32,643.11,866.6,643.13Zm-49.79-72.2c.08,1.28-.31,2.59.24,3.84-.57,1.48-.15,3-.24,4.52,0,4.81,0,9.63,0,14.44,0,.58.16.75.74.74,1.67-.06,3.34-.06,5-.08h13.92l3.09,0a60.66,60.66,0,0,0,6.18,0l13.56,0c1.15,0,2.31,0,3.46.09.46,0,.63-.15.62-.62,0-2.78-.06-5.56-.08-8.34v-2.78a47.09,47.09,0,0,0,0-5.82,30.45,30.45,0,0,0,0-4.48,53.81,53.81,0,0,0,0-5.82V551.34c0-.91,0-1.82.08-2.73,0-.49-.13-.74-.67-.72-1.07.05-2.14.05-3.21.08H856a9.39,9.39,0,0,0-2.54,0c-.44,0-.87-.06-1.31-.06H834.57l-9.18.06a50.82,50.82,0,0,0-5.52,0c-.79,0-1.58,0-2.37-.09-.58,0-.74.16-.73.73,0,2.41,0,4.83,0,7.24v15.08Zm62.88,24.63v0q-30.83,0-61.66,0c-1.08,0-1.28.29-1.27,1.3q.06,10.29,0,20.58c0,.94.23,1.18,1.17,1.17q61.73,0,123.45,0c.94,0,1.17-.25,1.16-1.18,0-6.86,0-13.72,0-20.58,0-1.1-.31-1.26-1.31-1.26Q910.46,595.59,879.69,595.56Zm28.95-23.87q-21.61,0-43.23,0c-1,0-1.23.27-1.23,1.25q.08,10.35,0,20.7c0,.89.2,1.11,1.1,1.11q43.17,0,86.34,0c.94,0,1.19-.22,1.18-1.17,0-6.86,0-13.72,0-20.58,0-1.08-.27-1.3-1.31-1.3Q930.08,571.72,908.64,571.69ZM858,642.33q19.93,0,39.88,0c.93,0,1.17-.23,1.17-1.17q-.06-10.35,0-20.7c0-.94-.24-1.18-1.18-1.18q-40,0-80,0c-.93,0-1.1.26-1.1,1.13q.06,10.35,0,20.7c0,1,.22,1.23,1.22,1.23Q838,642.3,858,642.33ZM900,570.9c7,0,14.05,0,21.07,0,.85,0,1-.23,1-1.07,0-6.94,0-13.88,0-20.82,0-.93-.27-1.09-1.13-1.09q-21.07,0-42.15,0c-.85,0-1,.22-1,1q.06,10.41,0,20.82c0,.89.21,1.11,1.11,1.11C886,570.88,893,570.9,900,570.9Zm-25.81-11.34c0-3.55,0-7.1,0-10.64,0-.67-.06-1-.88-1-2.79.06-5.58,0-8.38,0-.64,0-.79.19-.78.8q0,10.65,0,21.3c0,.67.17.87.85.86q4.14-.06,8.26,0c.76,0,.94-.21.93-.94C874.2,566.5,874.22,563,874.22,559.56ZM907.8,630.9c0,3.55,0,7.1,0,10.65,0,.63.1.9.83.89,2.31-.05,4.63-.05,6.94,0,.74,0,.94-.21.94-.94q0-10.65,0-21.3c0-.65-.14-.91-.85-.89-2.31,0-4.63.05-6.94,0-.77,0-.92.24-.91,1C907.82,623.8,907.8,627.35,907.8,630.9Zm-8.06-.07c0,2.51,0,5,0,7.54,0,1.29-.59,3.06.26,3.74s2.52.19,3.83.22H904c.58.1.73-.17.73-.73q0-10.77,0-21.53c0-.69-.28-.77-.85-.75-1,0-2.08,0-3.11,0-.79,0-1,.2-1,1C899.77,623.81,899.74,627.32,899.74,630.83ZM875,559.32c0,3.55,0,7.1,0,10.65,0,.86.31.95,1,.95s1.13-.06,1.12-1c0-7,0-14,0-21.06,0-1-.54-.87-1.18-.93s-1,.18-1,1C875,552.38,875,555.85,875,559.32Zm30.48,71.45c0,3.54,0,7.09,0,10.63,0,.59,0,1,.81,1s.81-.28.81-.9q0-10.63,0-21.26c0-.64-.1-.9-.82-.9s-.8.39-.79,1C905.48,623.76,905.47,627.27,905.47,630.77Z" transform="translate(-815.98 -547.04)"/><path class="cls-3" d="M863.27,582.72v2.78c-2.14,1.11-4.2,2.38-6.24,3.66a.87.87,0,0,0-.53.82c0,2.51,0,2.51,2.12,3.9.22.15.43.33.65.49l-13.56,0a1.23,1.23,0,0,0,.5-1.69,3.64,3.64,0,0,1-.09-2.58c.21-.68,0-1-.53-1.37-3.54-2.66-7-5.45-10.25-8.42-.52-.47-.93-.65-1.47-.07a6.39,6.39,0,0,1-.77.57c-3.65,1.3-6.86.84-9.39-2.34-.36-.44-.76-.55-1.19-.07a46,46,0,0,0-5.71.87c.09-1.51-.33-3,.24-4.52a7.71,7.71,0,0,0,3.8-.49c.53-.13,1.37.39,1.43-.7a7.05,7.05,0,0,1,1.39-3.86c.28-.38.2-.58-.08-.89-2.27-2.55-4.52-5.12-6.77-7.68,0-1.76,0-3.53,0-5.3,3,3.65,5.91,7.3,9.14,10.72.3.33.52.75,1.17.54a7.22,7.22,0,0,1,8.67,2.66c.39.5.67.43,1.07.14a72.52,72.52,0,0,0,13.45-5.9,41.22,41.22,0,0,0,3.79-2c.64-.3.67-.67.53-1.3a7.52,7.52,0,0,1,2.36-7.56c.71-.35.76-.82.44-1.52-.54-1.2-1-2.45-1.48-3.68h3.52a5.44,5.44,0,0,1,.37.86c.4,1.86,1.4,2.89,3.43,2.51V566.6a7.65,7.65,0,0,1-5.56-1.31.83.83,0,0,0-1.05,0c-1.38.79-2.78,1.56-4.17,2.33l-4.34,2.28a88.7,88.7,0,0,1-8.73,3.49c-1.47.49-2.49,1.11-2.61,2.85a1.41,1.41,0,0,0,.42,1.42q5.09,4.51,10.51,8.63a1.18,1.18,0,0,0,1.37.15,5,5,0,0,1,5.3.51,1.11,1.11,0,0,0,1.54,0A68.09,68.09,0,0,1,863.27,582.72Z" transform="translate(-815.98 -547.04)"/><path class="cls-4" d="M856,548c.49,1.23.94,2.48,1.48,3.68.32.7.27,1.17-.44,1.52-.27-.84-.58-.15-.78,0-2.28,1.88-4.25,4.07-6.37,6.12a1.08,1.08,0,0,0-.21,1.46,6.32,6.32,0,0,1,.68,3.23,72.52,72.52,0,0,1-13.45,5.9,1.53,1.53,0,0,0-.43-1.29,7.41,7.41,0,0,1-1.31-5.87,1.05,1.05,0,0,0-.4-1.24,94.59,94.59,0,0,1-9.24-7.71,41.81,41.81,0,0,1-5.61-5.83,50.82,50.82,0,0,1,5.52,0,43.87,43.87,0,0,0,4.56,4.38,82.77,82.77,0,0,0,6.71,5.53,1.06,1.06,0,0,0,1.47,0,7.27,7.27,0,0,1,7.88-.7,1.24,1.24,0,0,0,1.73-.34c1.78-1.82,3.55-3.67,5.45-5.36,1-.85,1.25-1.56.47-2.62a2.83,2.83,0,0,1-.25-.91A9.39,9.39,0,0,1,856,548Z" transform="translate(-815.98 -547.04)"/><path class="cls-4" d="M822.52,578.42c.43-.48.83-.37,1.19.07,2.53,3.18,5.74,3.64,9.39,2.34a1.86,1.86,0,0,0,.11,1.16,5.1,5.1,0,0,1,.58,3.78,1.85,1.85,0,0,0,.55,1.63,69.09,69.09,0,0,1,5.19,7l-3.09,0a39.34,39.34,0,0,0-3.52-4.89c-.51-.68-.88-1-1.67-.36a3.32,3.32,0,0,1-2.23.67,1.08,1.08,0,0,0-1.16.8c-.57,1.26-1.17,2.51-1.75,3.77h-3.59c.75-1.66,1.48-3.32,2.28-5a1.16,1.16,0,0,0-.12-1.46,5,5,0,0,1-.13-6.46c.41-.57.19-.8-.17-1.17C823.77,579.69,822.81,579.38,822.52,578.42Z" transform="translate(-815.98 -547.04)"/><path class="cls-4" d="M863.28,576.9A111,111,0,0,1,849,570.62c-.33-.17-.77-.25-.87-.72l4.34-2.28a60.25,60.25,0,0,0,10.8,4.8A30.45,30.45,0,0,1,863.28,576.9Z" transform="translate(-815.98 -547.04)"/><path class="cls-4" d="M863.27,551.34c-2,.38-3-.65-3.43-2.51a5.44,5.44,0,0,0-.37-.86c1.07,0,2.14,0,3.21-.08.54,0,.7.23.67.72C863.31,549.52,863.3,550.43,863.27,551.34Z" transform="translate(-815.98 -547.04)"/><path class="cls-4" d="M816.81,570.93c1.35,1.12,2.93,2,4,3.35a7.71,7.71,0,0,1-3.8.49C816.5,573.52,816.89,572.21,816.81,570.93Z" transform="translate(-815.98 -547.04)"/><path class="cls-5" d="M864,607.86c0-.84,0-1.68,0-2.51,0-.3-.18-.75.16-.85s1-.26,1.24.06c.36.64.56.32.94.09a2.38,2.38,0,0,1,3.07.19c.34.32.48.35.83,0a2.43,2.43,0,0,1,2.76-.43,2.4,2.4,0,0,1,1.34,2.35c0,1.31,0,2.63,0,3.94,0,.93-.59.63-1,.65s-1,.18-1-.71c.09-1.15,0-2.31,0-3.46,0-.68-.09-1.33-1-1.32s-1.15.6-1.15,1.36c0,1.15-.06,2.31,0,3.46,0,.92-.56.66-1,.67s-1.05.2-1-.69c.07-1.15,0-2.31,0-3.46,0-.65-.12-1.32-1-1.34s-1.17.61-1.21,1.33a33.28,33.28,0,0,0,0,3.46c0,.88-.5.73-1,.7s-1.09.27-1-.66S864,608.81,864,607.86Z" transform="translate(-815.98 -547.04)"/><path class="cls-5" d="M918.63,609.51c0,1.43,0,2.87,0,4.3,0,.9-.55.68-1,.69s-1,.21-1-.69c.06-2.07,0-4.14,0-6.22,0-.84-.07-1.68-1.19-1.69s-1.19.84-1.18,1.68c0,.48,0,1,0,1.44s.44,1.14,1,.88c.8-.39.7.17.85.55.21.55,0,.85-.56,1a2.38,2.38,0,0,1-3.17-1.84,8.26,8.26,0,0,1,0-3.21,2.58,2.58,0,0,1,4-1.78c.29.18.47.51.79-.06.21-.38.83-.2,1.22-.11s.2.55.2.83C918.64,606.72,918.63,608.11,918.63,609.51Z" transform="translate(-815.98 -547.04)"/><path class="cls-5" d="M888.7,604.78c.48-.19.83-.36,1.19-.47a2.34,2.34,0,0,1,3.08,2.1c.14,1.47.06,3,.09,4.42,0,.86-.63.52-1,.54s-1,.25-1-.6c0-1.19,0-2.39,0-3.58,0-.68-.12-1.3-1-1.31a1.2,1.2,0,0,0-1.31,1.25,28.7,28.7,0,0,0,0,3.47c.07.92-.48.77-1,.8s-1,0-1-.83q.1-4.25,0-8.49c0-1,.57-.72,1.08-.75s1-.08,1,.76S888.7,603.81,888.7,604.78Z" transform="translate(-815.98 -547.04)"/><path class="cls-5" d="M878.81,607v-3.58c0-.3-.1-.68.43-.65,1.42.08,2.86-.21,4.27.21,1.62.48,2.39,2.13,2,4.19a2.84,2.84,0,0,1-3.27,2.29c-.35-.05-1,.08-.87-.63.09-.5-.09-1.18.93-1.07s1.28-.71,1.29-1.59-.19-1.58-1.22-1.72c-1.44-.18-1.53-.11-1.53,1.36s-.06,3.19,0,4.77c0,.9-.44.82-1,.82s-1.08.09-1-.82C878.88,609.4,878.81,608.2,878.81,607Z" transform="translate(-815.98 -547.04)"/><path class="cls-5" d="M894,604.51c2.05-.15,2-.15,2.63,1.57l1.08,3.12c.41-1.21.71-2.13,1-3,.6-1.8.6-1.8,2.67-1.65-1.15,3-2.27,6-3.44,9a2.1,2.1,0,0,1-2.25,1.21c-.29,0-.77.11-.66-.39s-.35-1.05.43-1.29c1.18-.36,1.42-.86,1-2C895.7,608.92,894.88,606.78,894,604.51Z" transform="translate(-815.98 -547.04)"/><path class="cls-5" d="M846.43,608.76c-.44,0-.88,0-1.31,0-.27,0-.71-.21-.75.27a.8.8,0,0,0,.61.8,3,3,0,0,0,2-.07c.87-.35.85.42,1.09.85.35.64-.29.63-.58.72a4.89,4.89,0,0,1-3.14.08,3.51,3.51,0,0,1-.66-.27c-1.37-.78-1.88-3.86-.94-5.53a3.42,3.42,0,0,1,4.53-1,3.75,3.75,0,0,1,1.38,3.81c-.12.32-.32.29-.55.29Zm-.93-1.38c.33-.33,1.14.45,1.16-.5,0-.63-.43-1-1.11-1s-1.2.34-1.18,1S845.13,607.1,845.5,607.38Z" transform="translate(-815.98 -547.04)"/><path class="cls-5" d="M830.85,607.85c0-2.84,1.69-4.22,4.22-3.47a3.41,3.41,0,0,1,2.09,4c-.13.41-.38.33-.64.33-.95,0-1.91,0-2.86,0-.27,0-.72-.23-.78.24a.81.81,0,0,0,.68.86,2.59,2.59,0,0,0,1.76,0c1-.46,1.07.34,1.26.88.24.7-.47.59-.79.69a4.85,4.85,0,0,1-2.92.05C831.38,611,830.85,610.06,830.85,607.85Zm3.24-.4c.2-.56,1.11.45,1.07-.6,0-.63-.46-1-1.14-1s-1.2.38-1.15,1.06S833.65,607.09,834.09,607.45Z" transform="translate(-815.98 -547.04)"/><path class="cls-5" d="M932.44,608.76c-.48,0-1,0-1.43,0-.23,0-.61-.19-.66.25a.73.73,0,0,0,.39.69,2.26,2.26,0,0,0,2.08.1c1-.43,1.07.38,1.24.9.24.7-.47.57-.79.68a4.56,4.56,0,0,1-2.92,0,3.94,3.94,0,0,1-.76-.32c-1.26-.78-1.76-3.93-.88-5.48a3.4,3.4,0,0,1,4.42-1,3.64,3.64,0,0,1,1.51,3.85c-.1.32-.29.31-.53.32Zm-.94-1.36c.35-.33,1.15.39,1.15-.53,0-.68-.5-1-1.2-1a1,1,0,0,0-1.09,1C930.37,607.78,931.15,607.08,931.5,607.4Z" transform="translate(-815.98 -547.04)"/><path class="cls-5" d="M926.72,607.92c0,.83,0,1.67,0,2.5,0,.32.24.81-.21.93s-1,.25-1.24-.11c-.33-.56-.51-.27-.85-.08-1.95,1.14-3.81.19-4-2.08-.11-1.31,0-2.63-.1-3.94-.05-.88.54-.7,1-.69s1.08-.25,1,.66c0,1.19,0,2.39,0,3.58,0,.63.13,1.21,1,1.26a1.16,1.16,0,0,0,1.36-1.17,28.35,28.35,0,0,0,0-3.57c0-.81.39-.81.95-.77s1.16-.25,1.08.74S926.72,607,926.72,607.92Z" transform="translate(-815.98 -547.04)"/><path class="cls-5" d="M862.32,607.73c0,3.17-1.78,4.57-4.48,3.67a3.38,3.38,0,0,1-.44-.18c-1.4-.76-2-4-1-5.62a3.49,3.49,0,0,1,4.66-.89A3.06,3.06,0,0,1,862.32,607.73Zm-2,.13h0v-.6c0-.83-.3-1.4-1.25-1.37s-1.11.62-1.11,1.38c0,.55,0,1.11,0,1.67a1,1,0,0,0,1.09,1,1.07,1.07,0,0,0,1.22-1A9.53,9.53,0,0,0,860.33,607.86Z" transform="translate(-815.98 -547.04)"/><path class="cls-5" d="M826.64,607.86a21.47,21.47,0,0,1,0-2.27c.1-.93-.21-1.31-1.15-1.15s-1.25-.06-1.14-1c.06-.54.22-.66.71-.65,1.71,0,3.42.06,5.13,0,.77,0,.71.37.72.87s0,.86-.74.85c-1.56,0-1.56,0-1.56,1.65s0,2.94,0,4.41c0,.83-.32.89-1,.88s-1.14,0-1-.93A25.44,25.44,0,0,0,826.64,607.86Z" transform="translate(-815.98 -547.04)"/><path class="cls-5" d="M903.82,611.61a5.53,5.53,0,0,1-1-.2c-.35-.11-1.12.15-.84-.71.18-.57.23-1.37,1.2-.87a.65.65,0,0,0,.23.06c.6,0,1.46.41,1.67-.37s-.74-.66-1.18-.95-.86-.42-1.23-.72a1.89,1.89,0,0,1,.32-3.25,4.32,4.32,0,0,1,3.67,0c.54.2.28.51.14.73s-.15,1.08-.91.77a3.3,3.3,0,0,0-1.39-.25c-.25,0-.48.09-.56.35s.14.44.35.55l1.38.71a2.13,2.13,0,0,1,1.41,2.36c-.21,1.17-1.14,1.53-2.15,1.75A6.63,6.63,0,0,1,903.82,611.61Z" transform="translate(-815.98 -547.04)"/><path class="cls-5" d="M849.78,608c-.33-3.17,2.12-4.31,4.6-3.54.34.11.77.25.46.7s-.07,1.07-.86.88-1.52-.42-1.94.34a3.43,3.43,0,0,0-.06,3c.35.86,1.23.72,1.87.46,1-.4.95.45,1.14.89.3.7-.41.62-.74.71C851.52,612.23,849.78,610.88,849.78,608Z" transform="translate(-815.98 -547.04)"/><path class="cls-5" d="M840.56,606.36c0,1.4-.06,2.8,0,4.19,0,.85-.36.89-1,.85s-1.07.16-1-.79c.07-2.83.07-5.67,0-8.5,0-.94.5-.75,1-.78s1,0,1,.84C840.5,603.57,840.56,605,840.56,606.36Z" transform="translate(-815.98 -547.04)"/><path class="cls-5" d="M910.5,607.92v2.27c0,1.13-.61,1.54-1.69,1.2-.42-.13-.29-.42-.29-.66,0-1.88,0-3.75,0-5.62,0-.94.59-.63,1-.66s1.06-.17,1,.72S910.5,607,910.5,607.92Z" transform="translate(-815.98 -547.04)"/><path class="cls-2" d="M846.37,600.43c.31.53,1.08,1.07.68,1.51a6.82,6.82,0,0,1-2.33,1.39c-.24.11-.4-.5-.62-.76s0-.5.21-.68Z" transform="translate(-815.98 -547.04)"/><path class="cls-2" d="M834.78,600.49c.44.2.53.67.8,1s.09.48-.2.64c-.51.3-1,.63-1.52.94s-.69.54-1-.09-.46-.86.2-1.24S834.19,600.91,834.78,600.49Z" transform="translate(-815.98 -547.04)"/><path class="cls-2" d="M911,602.19c-.83.06-.65,2.09-2.09.92-1-.8-.72-1.33.1-2C910.38,600.15,910.21,602,911,602.19Z" transform="translate(-815.98 -547.04)"/><path class="cls-5" d="M899.9,584.33c0,.95,0,1.91,0,2.86-.07,2.54-1.75,3.71-4.18,2.94-.32-.1-.52-.17-.37-.53s.15-.53.58-.37a3.64,3.64,0,0,0,1.05.13,1.47,1.47,0,0,0,1.77-1.48,33.2,33.2,0,0,0,0-5.37A1.53,1.53,0,0,0,897,581c-1.06,0-1.45.7-1.52,1.63,0,.59,0,1.2,0,1.79,0,1.64.43,2,2,2,.34,0,.58.06.66.33s-.26.41-.51.51a2.24,2.24,0,0,1-3-1.31,7.55,7.55,0,0,1,0-4.24,2.39,2.39,0,0,1,3.65-1.31c.21.12.29.5.65.36,1-.43,1-.43,1,.68v2.87Z" transform="translate(-815.98 -547.04)"/><path class="cls-5" d="M877.39,582.2c0,1.48,0,2.95,0,4.43,0,.6-.45.81-.69.51-.46-.61-.7-.28-1.13,0a2.38,2.38,0,0,1-3.67-1.92,13.11,13.11,0,0,1,0-2.87,2.44,2.44,0,0,1,3.26-2.16c.19.08.52,0,.44.41s-.2.41-.56.45c-1.88.19-2.11.46-2.11,2.35a13.27,13.27,0,0,0,0,1.67c.09.84.49,1.43,1.43,1.46a1.54,1.54,0,0,0,1.8-1.35,34.5,34.5,0,0,0,.1-4.66c0-.87,0-1.75,0-2.63,0-.36,0-.69.51-.71s.57.36.57.76Z" transform="translate(-815.98 -547.04)"/><path class="cls-5" d="M920.49,583.71c0-2.39.48-3.25,2.09-3.6a2.67,2.67,0,0,1,2.73.76,3.9,3.9,0,0,1,.65,3.18c0,.39-.42.28-.68.29-.83,0-1.67-.05-2.5,0-.41,0-1.09-.37-1.18.34a1.4,1.4,0,0,0,1,1.7,3,3,0,0,0,1.88-.08c.39-.15.86-.4,1,.26s-.42.57-.74.66C921.88,588.05,920.49,586.89,920.49,583.71Zm2.82-.33c.46-.14,1.23.34,1.55-.23a1.52,1.52,0,0,0-.38-1.65,1.62,1.62,0,0,0-2.06-.33,1.56,1.56,0,0,0-.81,1.82c.17.8,1,.21,1.49.39Z" transform="translate(-815.98 -547.04)"/><path class="cls-5" d="M905.27,584.34a4.39,4.39,0,0,0-1,0c-.4.1-1.07-.37-1.16.38a1.39,1.39,0,0,0,1,1.68,3,3,0,0,0,2-.14c.41-.18.77-.19.9.33s-.37.53-.66.62c-2.19.63-4.62.09-4.36-3.17,0-.35,0-.71,0-1.07a2.61,2.61,0,0,1,1.43-2.67,3,3,0,0,1,3.25.4c.93.91.87,2.08.83,3.24,0,.4-.33.39-.61.39Zm-.58-.88c.55-.43,1.64.6,1.77-.69a1.55,1.55,0,0,0-1.61-1.78,1.6,1.6,0,0,0-1.72,1.81C903.23,584,904.23,583,904.69,583.46Z" transform="translate(-815.98 -547.04)"/><path class="cls-2" d="M886.92,583.71c0-1,0-1.92,0-2.87,0-.49.37-.81.59-.52.59.76,1,.13,1.41-.07a2.36,2.36,0,0,1,3.45,1.91c.15,1.5,0,3,.08,4.54,0,.43-.19.53-.58.53s-.53-.22-.53-.59c0-1.28,0-2.55,0-3.83,0-1-.28-1.75-1.44-1.81a1.63,1.63,0,0,0-1.86,1.71c-.08,1.27,0,2.55,0,3.82,0,.37,0,.7-.53.7s-.56-.25-.56-.66C886.93,585.62,886.92,584.66,886.92,583.71Z" transform="translate(-815.98 -547.04)"/><path class="cls-2" d="M909.67,583.71c0-1,0-1.92,0-2.87,0-.48.36-.82.59-.52.59.76,1,.13,1.41-.07a2.36,2.36,0,0,1,3.45,1.91c.15,1.5,0,3,.07,4.53,0,.44-.18.54-.57.54s-.53-.21-.53-.59c0-1.28,0-2.55,0-3.83,0-1-.28-1.75-1.44-1.81a1.63,1.63,0,0,0-1.86,1.71c-.09,1.23,0,2.47,0,3.7,0,.36.16.81-.52.82s-.56-.38-.56-.77Z" transform="translate(-815.98 -547.04)"/><path class="cls-5" d="M933.48,583.74c0,1,0,1.91,0,2.87,0,.44-.31.86-.56.55-.59-.75-.93-.17-1.39.05a2.32,2.32,0,0,1-3.42-1.77c-.16-1.54-.08-3.1-.13-4.65,0-.44.21-.52.59-.53s.55.13.54.54c0,1.31,0,2.63,0,3.94,0,1,.35,1.71,1.49,1.75a1.61,1.61,0,0,0,1.8-1.63c.08-1.28,0-2.55,0-3.83,0-.39-.11-.8.56-.78s.47.4.48.74Z" transform="translate(-815.98 -547.04)"/><path class="cls-5" d="M943.51,580c.31.06.86.14,1.39.29.2,0,.58.09.37.54s-.28.56-.68.39a3.59,3.59,0,0,0-1.52-.27,1.06,1.06,0,0,0-1.12.71c-.17.56.19.89.63,1.14s1.19.64,1.78,1a1.91,1.91,0,0,1,1.1,2.17c-.17.95-.94,1.2-1.72,1.42a4.75,4.75,0,0,1-2.45-.23c-.27-.06-.55-.18-.41-.57s.35-.52.73-.34a3.85,3.85,0,0,0,1.87.24.92.92,0,0,0,.91-.65.93.93,0,0,0-.43-1.14c-.54-.33-1.09-.65-1.66-.94-.91-.46-1.65-1-1.43-2.19C941,580.66,942.05,580,943.51,580Z" transform="translate(-815.98 -547.04)"/><path class="cls-5" d="M935.79,583.65c0-1,0-1.92,0-2.87,0-.68.61-.66.75-.41.41.79.69.18,1,0a2.4,2.4,0,0,1,1.71-.31c.21.06.64,0,.57.42a.61.61,0,0,1-.63.56c-2,.14-2.36.54-2.37,2.52v2.87c0,.39.11.8-.56.79s-.48-.49-.49-.84C935.78,585.48,935.79,584.56,935.79,583.65Z" transform="translate(-815.98 -547.04)"/><path class="cls-5" d="M884.43,583.77v2.75c0,.36,0,.69-.52.71s-.55-.26-.55-.66c0-1.87,0-3.74,0-5.61,0-.35-.08-.7.5-.71s.57.38.57.78Z" transform="translate(-815.98 -547.04)"/><path class="cls-5" d="M917.38,583.74v-2.86c0-.33,0-.62.46-.62s.62.16.61.62c0,1.91,0,3.81,0,5.72,0,.46-.14.63-.61.62s-.47-.29-.46-.62Z" transform="translate(-815.98 -547.04)"/><path class="cls-2" d="M881.2,577.23c-.29.9-.58,1.8-.88,2.7-.06.21-.16.34-.41.21s-.44-.11-.39-.36c.16-.93.34-1.86.55-2.78.1-.44.44-.18.68-.15S881.26,576.87,881.2,577.23Z" transform="translate(-815.98 -547.04)"/><path class="cls-2" d="M905.42,577.31c.41,0,.45.3.62.5s0,.32-.2.42c-.48.28-1,.56-1.43.85-.24.15-.42.18-.58-.1s-.24-.35,0-.51C904.34,578.06,904.9,577.68,905.42,577.31Z" transform="translate(-815.98 -547.04)"/><path class="cls-2" d="M918.8,578.47c-.29.23-.59.68-.87.66s-.88-.37-.81-.83.47-.81.9-.72A1.21,1.21,0,0,1,918.8,578.47Z" transform="translate(-815.98 -547.04)"/><path class="cls-2" d="M884,577.46c.26.3.69.58.71.88a.84.84,0,0,1-.82.79.86.86,0,0,1-.78-.75C883.1,577.93,883.59,577.72,884,577.46Z" transform="translate(-815.98 -547.04)"/><path class="cls-5" d="M827.27,635.33a6,6,0,0,1-2-.35c-.51-.15-1.12-.17-.81-1.06s.63-.91,1.38-.57,1.8.74,2.27-.13c.56-1-.64-1.33-1.27-1.8-.32-.23-.68-.4-1-.62-1.32-.85-1.76-1.85-1.31-3a3,3,0,0,1,3.19-1.56,4.5,4.5,0,0,1,1.94.88,7.89,7.89,0,0,0,1.18.8c.91.47,1.51.26,1.66-.73.11-.74.45-.74,1-.76.72,0,.64.43.62.86s0,1,.72.84.59.37.56.77.21,1-.55.89-.76.32-.74.85c0,.68,0,1.36,0,2,0,.42.08.89.57.92,1.09.06.81.92.73,1.4-.11.66-.79.32-1.18.26a2.13,2.13,0,0,1-2.06-2.36c.13-2.06-.31-3.46-2.52-4-.76-.19-1.32-1-2.24-1-.42,0-.82,0-1,.49s.13.75.48,1c.57.37,1.15.71,1.73,1.06,1.44.89,1.91,1.82,1.55,3.14A2.89,2.89,0,0,1,827.27,635.33Z" transform="translate(-815.98 -547.04)"/><path class="cls-5" d="M891.56,632.21c0,.91,0,1.83,0,2.74,0,2.12-1,3.13-3.12,3.25a5,5,0,0,1-1.76-.2c-.37-.12-1.11.1-.81-.77.2-.55.19-1.06,1.16-.84,2.06.47,2.68-.12,2.56-2-.07-1.15,0-2.31,0-3.46,0-.76-.3-1.33-1.19-1.32s-1.14.58-1.16,1.34c0,.56,0,1.11,0,1.67s.31,1.13,1,1,.74.42.86.85c.17.59-.36.62-.7.74a2.38,2.38,0,0,1-3.09-2,8.67,8.67,0,0,1,0-3.09,2.57,2.57,0,0,1,4-1.81c.38.22.46.35.88-.1s1.37,0,1.38.85C891.57,630.14,891.56,631.17,891.56,632.21Z" transform="translate(-815.98 -547.04)"/><path class="cls-5" d="M856.3,630c0-1.32.05-2.64,0-4,0-.84.2-1,1-1.06s1,.38,1,1.12c0,1.88,0,3.75,0,5.63a4.23,4.23,0,0,0,.16,1.17,1,1,0,0,0,1,.74c.93.06,1.32-.45,1.24-2,0-.81.55-2.23-1.14-2-.78.11-.52-.37-.66-.64s-.2-.71.31-.94a2.47,2.47,0,0,1,3.38,1.68,8,8,0,0,1,0,3.45,2.52,2.52,0,0,1-4,1.63c-.41-.27-.48-.23-.85.1-.62.56-1.42.08-1.42-.77C856.29,632.79,856.3,631.4,856.3,630Z" transform="translate(-815.98 -547.04)"/><path class="cls-5" d="M878.1,631.69c0,.84,0,1.68,0,2.51s-.77,1.33-1.42.73c-.42-.37-.54-.26-.9-.06-1.95,1.1-3.78.18-4-2-.12-1.35,0-2.71-.1-4.06,0-.92.61-.62,1-.65s1.06-.17,1,.71c-.07,1.15,0,2.31,0,3.46,0,.67.1,1.31,1,1.33a1.17,1.17,0,0,0,1.31-1.23,32.89,32.89,0,0,0,0-3.58c0-.9.54-.69,1-.69s1.08-.24,1,.68S878.1,630.74,878.1,631.69Z" transform="translate(-815.98 -547.04)"/><path class="cls-5" d="M848.31,632.44c0,.64,0,1.28,0,1.91,0,.29.14.72-.36.72s-1,.22-1.1-.18c-.29-1-.59-.28-.89-.07a2.46,2.46,0,0,1-2.79.16,1.76,1.76,0,0,1-.84-2,2.12,2.12,0,0,1,1.72-1.89c.49-.15,1-.2,1.5-.36.27-.08.83.29.78-.37a.85.85,0,0,0-.89-.81,5.65,5.65,0,0,0-1.54.07c-.9.22-.9-.5-1-.95-.17-.62.46-.5.78-.58a7.53,7.53,0,0,1,1.64-.22c2,0,3,.93,3,3C848.32,631.41,848.31,631.92,848.31,632.44ZM845,633.65c.75,0,1.23-.24,1.36-.95.09-.5-.24-.52-.57-.48-.59.08-1.36,0-1.49.81C844.21,633.52,844.63,633.67,845,633.65Z" transform="translate(-815.98 -547.04)"/><path class="cls-5" d="M863.92,631.59c-.31-3.36,2.44-4.15,4.48-3.45a3.32,3.32,0,0,1,.54.25c1.36.83,1.82,3.93.85,5.58a3.48,3.48,0,0,1-4.56.9C863.94,634.09,863.84,632.83,863.92,631.59Zm4.32.16c0-1.73-.23-2.15-1.16-2.17s-1.24.47-1.2,2.49c0,.87.14,1.67,1.27,1.57C868.46,633.53,868.2,632.49,868.24,631.75Z" transform="translate(-815.98 -547.04)"/><path class="cls-5" d="M852.06,635.35a3.94,3.94,0,0,1-1.53-.25c-.35-.09-1.09.13-.81-.74.21-.62.32-1.32,1.25-.82a.81.81,0,0,0,.35.07c.54,0,1.29.3,1.5-.33s-.62-.66-1-.93a5.46,5.46,0,0,0-.64-.32c-1-.47-1.69-1.11-1.49-2.31s1.18-1.61,2.25-1.8a3.63,3.63,0,0,1,1.76.2c.39.13,1.2,0,.91.81-.19.57-.37,1.33-1.3.78a1.11,1.11,0,0,0-.57-.12c-.38,0-.89-.15-1,.34s.38.55.67.71.78.39,1.16.6a2.12,2.12,0,0,1,1.32,2.21,2.15,2.15,0,0,1-2,1.8A7.64,7.64,0,0,1,852.06,635.35Z" transform="translate(-815.98 -547.04)"/><path class="cls-5" d="M838.88,629.34c.65-.8,1.18-1.37,2-1.41.33,0,.93-.28.88.4,0,.53.17,1.28-.61,1.48-1.8.47-2,.69-2,2.56a15.49,15.49,0,0,0,0,1.67c.09.81-.14,1.08-1,1.09s-1-.3-1-1.09c.07-1.55,0-3.11,0-4.66,0-.4-.44-1.07.4-1.23S838.88,628.18,838.88,629.34Z" transform="translate(-815.98 -547.04)"/><path class="cls-5" d="M881.69,629.29c.68-.56,1-1.06,1.54-1.23.43-.13.94-.33,1.25-.06s.06.89,0,1.35-.53.45-.91.48c-1.12.06-1.48.84-1.55,1.78a17.9,17.9,0,0,0,0,2.74c.08,1-.58.7-1.08.74s-1,0-.94-.76c.07-1.67,0-3.35,0-5,0-.37-.45-1,.35-1.15S881.85,628,881.69,629.29Z" transform="translate(-815.98 -547.04)"/><path class="cls-5" d="M915,559.66c.22.86-.26,1.07-1.11,1a11.88,11.88,0,0,0-2.15,0c-.4,0-1.07-.38-1.15.39a1.41,1.41,0,0,0,.92,1.63,3,3,0,0,0,1.88,0c.42-.13,1-.47,1.1.28s-.54.54-.89.64c-2.12.59-4.39-.11-4.11-3.22,0-.27,0-.55,0-.83,0-2.1.92-3.16,2.71-3.18S915,557.43,915,559.66Zm-2.85,0c1.77,0,1.77,0,1.78-.58a1.63,1.63,0,0,0-1.62-1.81,1.57,1.57,0,0,0-1.72,1.8C910.65,560.4,911.74,559.27,912.13,559.68Z" transform="translate(-815.98 -547.04)"/><path class="cls-5" d="M888,554.89a9.75,9.75,0,0,1,1.43,0c.38.06,1.07-.38,1,.5s-.64.4-1,.43a15.28,15.28,0,0,1-2.14,0c-.61,0-.82.14-.83.79,0,2.09-.08,2,2,2.12.51,0,1.49-.5,1.48.46s-1,.26-1.49.47c0,0-.08,0-.12,0-1.84,0-2.32.66-1.87,2.48.11.48.42.39.71.39H890c.34,0,.61,0,.61.48s-.26.49-.6.49c-1.32,0-2.63,0-4,0-.5,0-.58-.2-.58-.63,0-2.43,0-4.86,0-7.29,0-.59.19-.75.74-.72S887.42,554.89,888,554.89Z" transform="translate(-815.98 -547.04)"/><path class="cls-5" d="M904,560.07c0,2.42-.54,3.31-2.19,3.65a2.68,2.68,0,0,1-3.37-2.58c0-.67,0-1.35,0-2a2.78,2.78,0,1,1,5.55,0C904,559.44,904,559.76,904,560.07Zm-1.07,0h0c0-.32,0-.64,0-1,0-1.23-.53-1.79-1.57-1.84s-1.74.44-1.83,1.69a13.63,13.63,0,0,0,0,2.39,1.47,1.47,0,0,0,1.7,1.43,1.53,1.53,0,0,0,1.65-1.52A9.45,9.45,0,0,0,903,560.09Z" transform="translate(-815.98 -547.04)"/><path class="cls-5" d="M893.3,560.11c0,.28,0,.56,0,.84.1,1.47.7,2,2.17,1.83a6.3,6.3,0,0,0,1-.25c.39-.1.48.19.58.45s-.13.42-.34.49c-2,.7-4.7.24-4.53-2.82a11.45,11.45,0,0,0,0-1.31c-.11-2.71,2.25-3.47,4.41-2.76.22.08.48.2.31.5s-.13.49-.45.46a2,2,0,0,1-.24,0C893.65,557.13,893.29,557.45,893.3,560.11Z" transform="translate(-815.98 -547.04)"/><path class="cls-5" d="M907.39,558.6c0,1.39,0,2.78,0,4.17,0,.41.05.78-.59.76s-.47-.41-.47-.74V554.2c0-.41-.06-.78.58-.76s.47.41.47.74C907.39,555.65,907.39,557.12,907.39,558.6Z" transform="translate(-815.98 -547.04)"/><path class="cls-2" d="M888.7,551.9a.9.9,0,0,1,.63.69c.07.23-2,1.31-2.13,1.15s-.45-.38-.2-.59C887.54,552.69,888.14,552.3,888.7,551.9Z" transform="translate(-815.98 -547.04)"/></svg>